<?xml version="1.0" encoding="UTF-8" standalone="yes"?>
<!-- Created with qrencode 4.1.1 (https://fukuchi.org/works/qrencode/index.html) -->
<svg width="11.54cm" height="11.54cm" viewBox="0 0 109 109" preserveAspectRatio="none" version="1.1" xmlns="http://www.w3.org/2000/svg">
	<g id="QRcode">
		<rect x="0" y="0" width="109" height="109" fill="#ffffff"/>
		<path style="stroke:#000000" transform="translate(4,4.5)" d="M0,0h1M1,0h1M2,0h1M3,0h1M4,0h1M5,0h1M6,0h1M10,0h1M11,0h1M17,0h1M19,0h1M22,0h1M23,0h1M24,0h1M26,0h1M27,0h1M28,0h1M30,0h1M33,0h1M34,0h1M36,0h1M41,0h1M44,0h1M45,0h1M46,0h1M48,0h1M49,0h1M51,0h1M52,0h1M54,0h1M55,0h1M56,0h1M57,0h1M59,0h1M64,0h1M65,0h1M66,0h1M67,0h1M68,0h1M70,0h1M73,0h1M74,0h1M75,0h1M78,0h1M80,0h1M82,0h1M83,0h1M84,0h1M87,0h1M90,0h1M91,0h1M94,0h1M95,0h1M96,0h1M97,0h1M98,0h1M99,0h1M100,0h1M0,1h1M6,1h1M8,1h1M11,1h1M14,1h1M15,1h1M16,1h1M18,1h1M24,1h1M25,1h1M29,1h1M30,1h1M31,1h1M32,1h1M34,1h1M35,1h1M37,1h1M38,1h1M39,1h1M40,1h1M42,1h1M45,1h1M46,1h1M47,1h1M48,1h1M50,1h1M51,1h1M58,1h1M59,1h1M63,1h1M66,1h1M68,1h1M69,1h1M70,1h1M72,1h1M73,1h1M74,1h1M76,1h1M77,1h1M81,1h1M82,1h1M84,1h1M86,1h1M89,1h1M94,1h1M100,1h1M0,2h1M2,2h1M3,2h1M4,2h1M6,2h1M11,2h1M12,2h1M14,2h1M15,2h1M16,2h1M17,2h1M18,2h1M19,2h1M22,2h1M25,2h1M27,2h1M28,2h1M31,2h1M32,2h1M35,2h1M38,2h1M39,2h1M40,2h1M41,2h1M42,2h1M45,2h1M47,2h1M49,2h1M50,2h1M54,2h1M55,2h1M56,2h1M57,2h1M58,2h1M60,2h1M62,2h1M63,2h1M66,2h1M67,2h1M70,2h1M71,2h1M72,2h1M73,2h1M74,2h1M77,2h1M78,2h1M80,2h1M81,2h1M82,2h1M83,2h1M84,2h1M85,2h1M88,2h1M89,2h1M91,2h1M94,2h1M96,2h1M97,2h1M98,2h1M100,2h1M0,3h1M2,3h1M3,3h1M4,3h1M6,3h1M9,3h1M10,3h1M13,3h1M15,3h1M16,3h1M18,3h1M19,3h1M20,3h1M21,3h1M22,3h1M24,3h1M27,3h1M30,3h1M33,3h1M34,3h1M35,3h1M39,3h1M42,3h1M43,3h1M44,3h1M46,3h1M47,3h1M48,3h1M49,3h1M50,3h1M52,3h1M54,3h1M55,3h1M57,3h1M58,3h1M60,3h1M62,3h1M63,3h1M65,3h1M66,3h1M68,3h1M71,3h1M73,3h1M75,3h1M76,3h1M82,3h1M83,3h1M84,3h1M85,3h1M87,3h1M88,3h1M89,3h1M90,3h1M91,3h1M94,3h1M96,3h1M97,3h1M98,3h1M100,3h1M0,4h1M2,4h1M3,4h1M4,4h1M6,4h1M9,4h1M16,4h1M18,4h1M19,4h1M20,4h1M21,4h1M25,4h1M26,4h1M27,4h1M28,4h1M29,4h1M30,4h1M32,4h1M33,4h1M34,4h1M35,4h1M37,4h1M38,4h1M40,4h1M46,4h1M48,4h1M49,4h1M50,4h1M51,4h1M52,4h1M61,4h1M63,4h1M64,4h1M68,4h1M69,4h1M70,4h1M71,4h1M72,4h1M73,4h1M74,4h1M75,4h1M78,4h1M80,4h1M82,4h1M85,4h1M89,4h1M90,4h1M92,4h1M94,4h1M96,4h1M97,4h1M98,4h1M100,4h1M0,5h1M6,5h1M8,5h1M9,5h1M10,5h1M13,5h1M15,5h1M19,5h1M20,5h1M22,5h1M23,5h1M25,5h1M26,5h1M30,5h1M31,5h1M33,5h1M34,5h1M35,5h1M36,5h1M40,5h1M43,5h1M44,5h1M45,5h1M47,5h1M48,5h1M52,5h1M57,5h1M58,5h1M60,5h1M65,5h1M66,5h1M67,5h1M70,5h1M74,5h1M76,5h1M77,5h1M78,5h1M79,5h1M80,5h1M82,5h1M84,5h1M85,5h1M86,5h1M87,5h1M88,5h1M89,5h1M91,5h1M94,5h1M100,5h1M0,6h1M1,6h1M2,6h1M3,6h1M4,6h1M5,6h1M6,6h1M8,6h1M10,6h1M12,6h1M14,6h1M16,6h1M18,6h1M20,6h1M22,6h1M24,6h1M26,6h1M28,6h1M30,6h1M32,6h1M34,6h1M36,6h1M38,6h1M40,6h1M42,6h1M44,6h1M46,6h1M48,6h1M50,6h1M52,6h1M54,6h1M56,6h1M58,6h1M60,6h1M62,6h1M64,6h1M66,6h1M68,6h1M70,6h1M72,6h1M74,6h1M76,6h1M78,6h1M80,6h1M82,6h1M84,6h1M86,6h1M88,6h1M90,6h1M92,6h1M94,6h1M95,6h1M96,6h1M97,6h1M98,6h1M99,6h1M100,6h1M8,7h1M10,7h1M11,7h1M13,7h1M14,7h1M15,7h1M17,7h1M18,7h1M19,7h1M20,7h1M22,7h1M23,7h1M24,7h1M26,7h1M30,7h1M42,7h1M43,7h1M44,7h1M47,7h1M48,7h1M52,7h1M53,7h1M56,7h1M57,7h1M58,7h1M59,7h1M60,7h1M62,7h1M65,7h1M68,7h1M70,7h1M74,7h1M75,7h1M77,7h1M81,7h1M82,7h1M85,7h1M86,7h1M91,7h1M4,8h1M5,8h1M6,8h1M7,8h1M10,8h1M11,8h1M12,8h1M13,8h1M14,8h1M15,8h1M17,8h1M20,8h1M21,8h1M24,8h1M25,8h1M26,8h1M27,8h1M28,8h1M29,8h1M30,8h1M31,8h1M32,8h1M33,8h1M36,8h1M40,8h1M41,8h1M46,8h1M47,8h1M48,8h1M49,8h1M50,8h1M51,8h1M52,8h1M54,8h1M60,8h1M62,8h1M67,8h1M68,8h1M69,8h1M70,8h1M71,8h1M72,8h1M73,8h1M74,8h1M77,8h1M78,8h1M79,8h1M80,8h1M83,8h1M86,8h1M88,8h1M89,8h1M90,8h1M91,8h1M94,8h1M95,8h1M99,8h1M0,9h1M1,9h1M2,9h1M3,9h1M4,9h1M9,9h1M13,9h1M15,9h1M19,9h1M20,9h1M22,9h1M23,9h1M24,9h1M25,9h1M26,9h1M29,9h1M31,9h1M33,9h1M34,9h1M35,9h1M38,9h1M41,9h1M42,9h1M43,9h1M44,9h1M45,9h1M47,9h1M49,9h1M54,9h1M55,9h1M56,9h1M58,9h1M60,9h1M62,9h1M67,9h1M68,9h1M70,9h1M71,9h1M72,9h1M78,9h1M79,9h1M80,9h1M83,9h1M84,9h1M85,9h1M86,9h1M88,9h1M90,9h1M91,9h1M93,9h1M94,9h1M95,9h1M96,9h1M99,9h1M1,10h1M2,10h1M3,10h1M4,10h1M6,10h1M7,10h1M8,10h1M9,10h1M13,10h1M14,10h1M15,10h1M17,10h1M18,10h1M21,10h1M23,10h1M24,10h1M25,10h1M26,10h1M27,10h1M31,10h1M32,10h1M34,10h1M35,10h1M36,10h1M37,10h1M40,10h1M41,10h1M42,10h1M44,10h1M45,10h1M46,10h1M48,10h1M49,10h1M53,10h1M55,10h1M59,10h1M60,10h1M64,10h1M67,10h1M70,10h1M71,10h1M72,10h1M73,10h1M75,10h1M76,10h1M78,10h1M81,10h1M83,10h1M87,10h1M88,10h1M90,10h1M91,10h1M93,10h1M94,10h1M95,10h1M96,10h1M97,10h1M98,10h1M3,11h1M4,11h1M5,11h1M7,11h1M9,11h1M11,11h1M12,11h1M13,11h1M16,11h1M17,11h1M23,11h1M24,11h1M27,11h1M29,11h1M30,11h1M34,11h1M37,11h1M40,11h1M48,11h1M49,11h1M54,11h1M58,11h1M60,11h1M62,11h1M63,11h1M64,11h1M66,11h1M69,11h1M72,11h1M74,11h1M77,11h1M78,11h1M79,11h1M80,11h1M81,11h1M84,11h1M85,11h1M86,11h1M91,11h1M92,11h1M95,11h1M98,11h1M99,11h1M6,12h1M7,12h1M9,12h1M13,12h1M15,12h1M17,12h1M20,12h1M21,12h1M22,12h1M23,12h1M26,12h1M27,12h1M30,12h1M31,12h1M32,12h1M33,12h1M36,12h1M39,12h1M42,12h1M46,12h1M48,12h1M49,12h1M52,12h1M53,12h1M55,12h1M59,12h1M60,12h1M62,12h1M63,12h1M65,12h1M66,12h1M67,12h1M68,12h1M69,12h1M70,12h1M74,12h1M76,12h1M77,12h1M78,12h1M79,12h1M81,12h1M86,12h1M88,12h1M90,12h1M91,12h1M92,12h1M97,12h1M99,12h1M1,13h1M4,13h1M5,13h1M7,13h1M8,13h1M10,13h1M11,13h1M14,13h1M16,13h1M19,13h1M21,13h1M26,13h1M29,13h1M31,13h1M33,13h1M34,13h1M37,13h1M38,13h1M40,13h1M41,13h1M45,13h1M46,13h1M47,13h1M48,13h1M49,13h1M50,13h1M51,13h1M54,13h1M56,13h1M57,13h1M58,13h1M59,13h1M61,13h1M62,13h1M63,13h1M68,13h1M72,13h1M73,13h1M74,13h1M75,13h1M76,13h1M82,13h1M83,13h1M85,13h1M87,13h1M88,13h1M91,13h1M94,13h1M95,13h1M96,13h1M97,13h1M98,13h1M99,13h1M0,14h1M2,14h1M6,14h1M7,14h1M9,14h1M11,14h1M14,14h1M15,14h1M18,14h1M20,14h1M21,14h1M26,14h1M27,14h1M33,14h1M34,14h1M40,14h1M41,14h1M42,14h1M43,14h1M45,14h1M46,14h1M47,14h1M50,14h1M51,14h1M55,14h1M57,14h1M58,14h1M60,14h1M61,14h1M62,14h1M64,14h1M66,14h1M68,14h1M69,14h1M70,14h1M71,14h1M73,14h1M74,14h1M75,14h1M76,14h1M77,14h1M81,14h1M83,14h1M85,14h1M86,14h1M89,14h1M91,14h1M92,14h1M93,14h1M94,14h1M95,14h1M98,14h1M100,14h1M3,15h1M7,15h1M9,15h1M11,15h1M12,15h1M15,15h1M18,15h1M21,15h1M23,15h1M25,15h1M26,15h1M27,15h1M31,15h1M35,15h1M36,15h1M39,15h1M40,15h1M42,15h1M43,15h1M45,15h1M50,15h1M54,15h1M59,15h1M60,15h1M63,15h1M65,15h1M67,15h1M68,15h1M69,15h1M71,15h1M72,15h1M73,15h1M76,15h1M79,15h1M81,15h1M82,15h1M83,15h1M85,15h1M86,15h1M87,15h1M88,15h1M89,15h1M95,15h1M96,15h1M97,15h1M99,15h1M100,15h1M0,16h1M1,16h1M3,16h1M5,16h1M6,16h1M7,16h1M11,16h1M14,16h1M16,16h1M17,16h1M20,16h1M21,16h1M22,16h1M23,16h1M24,16h1M26,16h1M28,16h1M33,16h1M34,16h1M35,16h1M38,16h1M39,16h1M41,16h1M43,16h1M45,16h1M46,16h1M49,16h1M50,16h1M51,16h1M55,16h1M56,16h1M59,16h1M60,16h1M62,16h1M64,16h1M65,16h1M66,16h1M67,16h1M70,16h1M72,16h1M73,16h1M74,16h1M76,16h1M77,16h1M78,16h1M79,16h1M81,16h1M84,16h1M85,16h1M86,16h1M88,16h1M89,16h1M90,16h1M92,16h1M94,16h1M96,16h1M97,16h1M98,16h1M99,16h1M100,16h1M3,17h1M4,17h1M8,17h1M12,17h1M13,17h1M17,17h1M21,17h1M25,17h1M29,17h1M30,17h1M31,17h1M36,17h1M38,17h1M39,17h1M40,17h1M41,17h1M43,17h1M45,17h1M48,17h1M49,17h1M50,17h1M53,17h1M55,17h1M58,17h1M60,17h1M62,17h1M64,17h1M68,17h1M72,17h1M73,17h1M75,17h1M76,17h1M78,17h1M79,17h1M81,17h1M84,17h1M90,17h1M92,17h1M93,17h1M96,17h1M97,17h1M98,17h1M99,17h1M1,18h1M2,18h1M3,18h1M6,18h1M9,18h1M11,18h1M13,18h1M16,18h1M17,18h1M18,18h1M19,18h1M20,18h1M21,18h1M24,18h1M25,18h1M27,18h1M28,18h1M29,18h1M31,18h1M32,18h1M33,18h1M34,18h1M37,18h1M46,18h1M47,18h1M50,18h1M52,18h1M53,18h1M54,18h1M55,18h1M56,18h1M59,18h1M60,18h1M61,18h1M63,18h1M64,18h1M66,18h1M68,18h1M69,18h1M71,18h1M72,18h1M73,18h1M74,18h1M80,18h1M81,18h1M83,18h1M86,18h1M88,18h1M93,18h1M96,18h1M97,18h1M100,18h1M3,19h1M7,19h1M8,19h1M10,19h1M11,19h1M13,19h1M14,19h1M15,19h1M17,19h1M23,19h1M26,19h1M35,19h1M38,19h1M41,19h1M42,19h1M43,19h1M47,19h1M50,19h1M62,19h1M64,19h1M65,19h1M67,19h1M69,19h1M70,19h1M71,19h1M72,19h1M79,19h1M82,19h1M85,19h1M86,19h1M89,19h1M95,19h1M97,19h1M99,19h1M0,20h1M6,20h1M7,20h1M8,20h1M9,20h1M10,20h1M12,20h1M13,20h1M14,20h1M16,20h1M17,20h1M20,20h1M21,20h1M22,20h1M25,20h1M26,20h1M27,20h1M28,20h1M29,20h1M30,20h1M32,20h1M33,20h1M34,20h1M35,20h1M37,20h1M39,20h1M43,20h1M45,20h1M47,20h1M52,20h1M54,20h1M55,20h1M56,20h1M57,20h1M60,20h1M61,20h1M65,20h1M66,20h1M69,20h1M70,20h1M71,20h1M74,20h1M75,20h1M77,20h1M78,20h1M79,20h1M84,20h1M85,20h1M86,20h1M88,20h1M89,20h1M90,20h1M93,20h1M95,20h1M96,20h1M97,20h1M99,20h1M100,20h1M0,21h1M3,21h1M4,21h1M7,21h1M11,21h1M12,21h1M15,21h1M17,21h1M20,21h1M29,21h1M30,21h1M32,21h1M35,21h1M39,21h1M42,21h1M45,21h1M47,21h1M48,21h1M49,21h1M51,21h1M52,21h1M53,21h1M56,21h1M57,21h1M60,21h1M61,21h1M63,21h1M66,21h1M68,21h1M70,21h1M72,21h1M74,21h1M76,21h1M77,21h1M79,21h1M80,21h1M81,21h1M82,21h1M83,21h1M84,21h1M87,21h1M88,21h1M90,21h1M91,21h1M94,21h1M1,22h1M4,22h1M6,22h1M7,22h1M10,22h1M12,22h1M13,22h1M14,22h1M15,22h1M18,22h1M19,22h1M20,22h1M21,22h1M22,22h1M23,22h1M26,22h1M27,22h1M29,22h1M31,22h1M33,22h1M37,22h1M39,22h1M41,22h1M42,22h1M43,22h1M51,22h1M54,22h1M58,22h1M59,22h1M60,22h1M63,22h1M64,22h1M65,22h1M66,22h1M67,22h1M68,22h1M70,22h1M71,22h1M72,22h1M73,22h1M75,22h1M77,22h1M79,22h1M81,22h1M84,22h1M86,22h1M87,22h1M91,22h1M92,22h1M93,22h1M94,22h1M95,22h1M97,22h1M2,23h1M10,23h1M12,23h1M14,23h1M15,23h1M19,23h1M20,23h1M21,23h1M22,23h1M24,23h1M27,23h1M28,23h1M29,23h1M32,23h1M33,23h1M34,23h1M35,23h1M36,23h1M37,23h1M40,23h1M42,23h1M47,23h1M49,23h1M50,23h1M53,23h1M55,23h1M57,23h1M59,23h1M60,23h1M61,23h1M63,23h1M64,23h1M65,23h1M68,23h1M69,23h1M71,23h1M72,23h1M73,23h1M74,23h1M77,23h1M79,23h1M80,23h1M85,23h1M86,23h1M87,23h1M89,23h1M90,23h1M94,23h1M96,23h1M98,23h1M99,23h1M0,24h1M1,24h1M2,24h1M3,24h1M4,24h1M5,24h1M6,24h1M7,24h1M8,24h1M9,24h1M14,24h1M16,24h1M18,24h1M20,24h1M21,24h1M22,24h1M26,24h1M28,24h1M34,24h1M35,24h1M38,24h1M40,24h1M41,24h1M44,24h1M46,24h1M47,24h1M49,24h1M51,24h1M52,24h1M54,24h1M56,24h1M57,24h1M58,24h1M59,24h1M61,24h1M67,24h1M68,24h1M69,24h1M70,24h1M71,24h1M74,24h1M76,24h1M78,24h1M79,24h1M84,24h1M86,24h1M90,24h1M91,24h1M92,24h1M93,24h1M95,24h1M96,24h1M2,25h1M5,25h1M7,25h1M8,25h1M9,25h1M10,25h1M11,25h1M12,25h1M14,25h1M18,25h1M19,25h1M20,25h1M21,25h1M23,25h1M24,25h1M25,25h1M26,25h1M28,25h1M30,25h1M33,25h1M36,25h1M37,25h1M38,25h1M41,25h1M43,25h1M45,25h1M46,25h1M48,25h1M53,25h1M54,25h1M55,25h1M56,25h1M57,25h1M59,25h1M61,25h1M64,25h1M68,25h1M69,25h1M72,25h1M73,25h1M76,25h1M77,25h1M79,25h1M80,25h1M81,25h1M82,25h1M83,25h1M84,25h1M85,25h1M86,25h1M87,25h1M89,25h1M91,25h1M92,25h1M95,25h1M96,25h1M98,25h1M99,25h1M0,26h1M1,26h1M2,26h1M4,26h1M5,26h1M6,26h1M7,26h1M8,26h1M9,26h1M10,26h1M11,26h1M12,26h1M13,26h1M22,26h1M24,26h1M25,26h1M26,26h1M27,26h1M28,26h1M29,26h1M30,26h1M31,26h1M37,26h1M39,26h1M43,26h1M48,26h1M49,26h1M50,26h1M51,26h1M52,26h1M56,26h1M61,26h1M63,26h1M64,26h1M66,26h1M67,26h1M68,26h1M69,26h1M70,26h1M71,26h1M72,26h1M73,26h1M74,26h1M76,26h1M77,26h1M79,26h1M81,26h1M82,26h1M83,26h1M85,26h1M86,26h1M88,26h1M89,26h1M90,26h1M91,26h1M92,26h1M93,26h1M94,26h1M95,26h1M96,26h1M98,26h1M99,26h1M1,27h1M2,27h1M3,27h1M4,27h1M8,27h1M9,27h1M11,27h1M16,27h1M17,27h1M19,27h1M20,27h1M21,27h1M24,27h1M26,27h1M30,27h1M34,27h1M36,27h1M37,27h1M38,27h1M41,27h1M44,27h1M45,27h1M48,27h1M52,27h1M53,27h1M58,27h1M59,27h1M60,27h1M61,27h1M63,27h1M64,27h1M65,27h1M69,27h1M70,27h1M74,27h1M79,27h1M80,27h1M84,27h1M90,27h1M91,27h1M92,27h1M96,27h1M97,27h1M99,27h1M0,28h1M1,28h1M2,28h1M3,28h1M4,28h1M6,28h1M8,28h1M12,28h1M13,28h1M14,28h1M17,28h1M19,28h1M22,28h1M24,28h1M25,28h1M26,28h1M28,28h1M30,28h1M31,28h1M32,28h1M37,28h1M38,28h1M39,28h1M40,28h1M41,28h1M45,28h1M48,28h1M50,28h1M52,28h1M53,28h1M55,28h1M56,28h1M60,28h1M61,28h1M62,28h1M65,28h1M66,28h1M68,28h1M69,28h1M70,28h1M72,28h1M74,28h1M76,28h1M77,28h1M78,28h1M79,28h1M81,28h1M86,28h1M90,28h1M91,28h1M92,28h1M94,28h1M96,28h1M97,28h1M98,28h1M100,28h1M3,29h1M4,29h1M8,29h1M10,29h1M20,29h1M22,29h1M26,29h1M30,29h1M31,29h1M32,29h1M33,29h1M36,29h1M37,29h1M38,29h1M41,29h1M42,29h1M47,29h1M48,29h1M52,29h1M55,29h1M60,29h1M68,29h1M70,29h1M74,29h1M75,29h1M77,29h1M79,29h1M80,29h1M81,29h1M82,29h1M84,29h1M87,29h1M88,29h1M91,29h1M92,29h1M96,29h1M98,29h1M100,29h1M1,30h1M2,30h1M4,30h1M5,30h1M6,30h1M7,30h1M8,30h1M11,30h1M14,30h1M16,30h1M17,30h1M18,30h1M25,30h1M26,30h1M27,30h1M28,30h1M29,30h1M30,30h1M31,30h1M34,30h1M35,30h1M39,30h1M41,30h1M42,30h1M45,30h1M46,30h1M48,30h1M49,30h1M50,30h1M51,30h1M52,30h1M53,30h1M55,30h1M57,30h1M58,30h1M59,30h1M60,30h1M63,30h1M64,30h1M67,30h1M70,30h1M71,30h1M72,30h1M73,30h1M74,30h1M75,30h1M77,30h1M79,30h1M80,30h1M82,30h1M83,30h1M84,30h1M85,30h1M88,30h1M89,30h1M91,30h1M92,30h1M93,30h1M94,30h1M95,30h1M96,30h1M98,30h1M1,31h1M3,31h1M9,31h1M11,31h1M12,31h1M13,31h1M16,31h1M17,31h1M19,31h1M21,31h1M22,31h1M23,31h1M26,31h1M27,31h1M29,31h1M30,31h1M36,31h1M38,31h1M40,31h1M43,31h1M53,31h1M54,31h1M55,31h1M58,31h1M59,31h1M62,31h1M64,31h1M66,31h1M69,31h1M71,31h1M72,31h1M74,31h1M78,31h1M79,31h1M81,31h1M82,31h1M83,31h1M84,31h1M87,31h1M88,31h1M89,31h1M91,31h1M93,31h1M99,31h1M0,32h1M1,32h1M3,32h1M4,32h1M6,32h1M7,32h1M8,32h1M10,32h1M13,32h1M14,32h1M16,32h1M17,32h1M23,32h1M25,32h1M26,32h1M27,32h1M28,32h1M29,32h1M31,32h1M32,32h1M33,32h1M35,32h1M36,32h1M37,32h1M40,32h1M41,32h1M44,32h1M45,32h1M46,32h1M51,32h1M52,32h1M53,32h1M59,32h1M60,32h1M64,32h1M65,32h1M66,32h1M67,32h1M71,32h1M72,32h1M74,32h1M77,32h1M78,32h1M79,32h1M80,32h1M81,32h1M85,32h1M86,32h1M88,32h1M89,32h1M90,32h1M94,32h1M98,32h1M1,33h1M3,33h1M5,33h1M12,33h1M13,33h1M16,33h1M21,33h1M22,33h1M25,33h1M26,33h1M27,33h1M28,33h1M30,33h1M33,33h1M35,33h1M36,33h1M37,33h1M39,33h1M41,33h1M43,33h1M44,33h1M45,33h1M51,33h1M52,33h1M53,33h1M55,33h1M57,33h1M58,33h1M59,33h1M61,33h1M63,33h1M64,33h1M66,33h1M68,33h1M70,33h1M73,33h1M74,33h1M78,33h1M79,33h1M85,33h1M86,33h1M88,33h1M91,33h1M92,33h1M93,33h1M95,33h1M96,33h1M98,33h1M99,33h1M0,34h1M3,34h1M4,34h1M5,34h1M6,34h1M7,34h1M8,34h1M9,34h1M10,34h1M11,34h1M13,34h1M15,34h1M17,34h1M20,34h1M22,34h1M24,34h1M26,34h1M27,34h1M29,34h1M30,34h1M31,34h1M33,34h1M34,34h1M35,34h1M37,34h1M38,34h1M41,34h1M43,34h1M44,34h1M52,34h1M56,34h1M57,34h1M61,34h1M62,34h1M66,34h1M67,34h1M68,34h1M69,34h1M70,34h1M73,34h1M74,34h1M75,34h1M82,34h1M83,34h1M86,34h1M88,34h1M89,34h1M91,34h1M92,34h1M95,34h1M97,34h1M98,34h1M2,35h1M3,35h1M7,35h1M8,35h1M10,35h1M11,35h1M14,35h1M15,35h1M16,35h1M18,35h1M19,35h1M21,35h1M22,35h1M23,35h1M26,35h1M27,35h1M28,35h1M30,35h1M33,35h1M34,35h1M36,35h1M42,35h1M43,35h1M56,35h1M59,35h1M60,35h1M63,35h1M65,35h1M68,35h1M69,35h1M70,35h1M72,35h1M73,35h1M77,35h1M79,35h1M80,35h1M82,35h1M84,35h1M86,35h1M90,35h1M91,35h1M93,35h1M94,35h1M96,35h1M99,35h1M0,36h1M3,36h1M4,36h1M6,36h1M7,36h1M10,36h1M12,36h1M13,36h1M14,36h1M16,36h1M17,36h1M18,36h1M23,36h1M24,36h1M25,36h1M27,36h1M30,36h1M31,36h1M34,36h1M35,36h1M38,36h1M39,36h1M40,36h1M45,36h1M48,36h1M50,36h1M54,36h1M56,36h1M57,36h1M58,36h1M61,36h1M63,36h1M66,36h1M69,36h1M70,36h1M73,36h1M77,36h1M78,36h1M79,36h1M84,36h1M86,36h1M89,36h1M90,36h1M92,36h1M93,36h1M94,36h1M97,36h1M0,37h1M1,37h1M2,37h1M3,37h1M4,37h1M7,37h1M9,37h1M10,37h1M12,37h1M16,37h1M20,37h1M23,37h1M25,37h1M27,37h1M28,37h1M30,37h1M31,37h1M32,37h1M33,37h1M35,37h1M37,37h1M38,37h1M41,37h1M42,37h1M43,37h1M44,37h1M46,37h1M47,37h1M48,37h1M49,37h1M51,37h1M52,37h1M56,37h1M57,37h1M58,37h1M59,37h1M61,37h1M63,37h1M64,37h1M67,37h1M68,37h1M69,37h1M71,37h1M74,37h1M81,37h1M82,37h1M86,37h1M87,37h1M89,37h1M90,37h1M92,37h1M95,37h1M96,37h1M97,37h1M98,37h1M99,37h1M0,38h1M1,38h1M4,38h1M5,38h1M6,38h1M7,38h1M9,38h1M12,38h1M13,38h1M14,38h1M15,38h1M18,38h1M19,38h1M22,38h1M29,38h1M33,38h1M35,38h1M37,38h1M40,38h1M45,38h1M46,38h1M47,38h1M48,38h1M49,38h1M51,38h1M52,38h1M53,38h1M56,38h1M57,38h1M58,38h1M62,38h1M63,38h1M64,38h1M69,38h1M70,38h1M71,38h1M74,38h1M75,38h1M80,38h1M83,38h1M88,38h1M91,38h1M92,38h1M95,38h1M96,38h1M98,38h1M1,39h1M2,39h1M3,39h1M4,39h1M8,39h1M10,39h1M11,39h1M12,39h1M13,39h1M14,39h1M16,39h1M18,39h1M20,39h1M21,39h1M23,39h1M24,39h1M26,39h1M27,39h1M28,39h1M29,39h1M32,39h1M34,39h1M37,39h1M39,39h1M40,39h1M42,39h1M44,39h1M46,39h1M47,39h1M49,39h1M50,39h1M51,39h1M55,39h1M57,39h1M62,39h1M68,39h1M69,39h1M71,39h1M72,39h1M73,39h1M74,39h1M79,39h1M80,39h1M82,39h1M84,39h1M89,39h1M91,39h1M93,39h1M95,39h1M99,39h1M100,39h1M0,40h1M4,40h1M6,40h1M9,40h1M10,40h1M12,40h1M21,40h1M23,40h1M25,40h1M26,40h1M27,40h1M29,40h1M30,40h1M32,40h1M34,40h1M36,40h1M38,40h1M41,40h1M43,40h1M45,40h1M46,40h1M48,40h1M50,40h1M51,40h1M54,40h1M55,40h1M56,40h1M60,40h1M63,40h1M64,40h1M66,40h1M67,40h1M69,40h1M70,40h1M71,40h1M77,40h1M78,40h1M79,40h1M81,40h1M82,40h1M84,40h1M86,40h1M88,40h1M90,40h1M93,40h1M94,40h1M95,40h1M96,40h1M97,40h1M98,40h1M99,40h1M1,41h1M5,41h1M13,41h1M14,41h1M16,41h1M17,41h1M19,41h1M20,41h1M21,41h1M24,41h1M25,41h1M27,41h1M28,41h1M30,41h1M31,41h1M35,41h1M36,41h1M37,41h1M39,41h1M40,41h1M41,41h1M42,41h1M43,41h1M44,41h1M46,41h1M47,41h1M48,41h1M52,41h1M53,41h1M55,41h1M56,41h1M57,41h1M58,41h1M59,41h1M61,41h1M62,41h1M64,41h1M66,41h1M68,41h1M69,41h1M70,41h1M74,41h1M75,41h1M76,41h1M80,41h1M82,41h1M86,41h1M87,41h1M88,41h1M90,41h1M92,41h1M94,41h1M95,41h1M96,41h1M98,41h1M2,42h1M3,42h1M5,42h1M6,42h1M7,42h1M9,42h1M10,42h1M11,42h1M12,42h1M15,42h1M18,42h1M26,42h1M28,42h1M30,42h1M32,42h1M34,42h1M35,42h1M40,42h1M41,42h1M43,42h1M44,42h1M45,42h1M47,42h1M50,42h1M51,42h1M52,42h1M53,42h1M58,42h1M60,42h1M61,42h1M64,42h1M67,42h1M70,42h1M73,42h1M75,42h1M78,42h1M79,42h1M81,42h1M82,42h1M85,42h1M86,42h1M87,42h1M89,42h1M92,42h1M95,42h1M96,42h1M97,42h1M99,42h1M0,43h1M2,43h1M3,43h1M5,43h1M7,43h1M8,43h1M10,43h1M11,43h1M12,43h1M15,43h1M16,43h1M19,43h1M20,43h1M23,43h1M24,43h1M26,43h1M28,43h1M31,43h1M34,43h1M36,43h1M37,43h1M39,43h1M42,43h1M43,43h1M45,43h1M47,43h1M49,43h1M54,43h1M57,43h1M58,43h1M60,43h1M63,43h1M65,43h1M68,43h1M69,43h1M72,43h1M77,43h1M78,43h1M79,43h1M80,43h1M81,43h1M84,43h1M85,43h1M86,43h1M89,43h1M90,43h1M91,43h1M93,43h1M94,43h1M95,43h1M96,43h1M99,43h1M100,43h1M2,44h1M3,44h1M6,44h1M11,44h1M12,44h1M14,44h1M16,44h1M18,44h1M19,44h1M21,44h1M22,44h1M23,44h1M24,44h1M25,44h1M27,44h1M30,44h1M33,44h1M36,44h1M37,44h1M38,44h1M39,44h1M41,44h1M42,44h1M48,44h1M49,44h1M50,44h1M51,44h1M52,44h1M53,44h1M57,44h1M58,44h1M60,44h1M63,44h1M64,44h1M66,44h1M67,44h1M71,44h1M73,44h1M76,44h1M77,44h1M79,44h1M80,44h1M81,44h1M85,44h1M92,44h1M93,44h1M94,44h1M96,44h1M0,45h1M3,45h1M4,45h1M9,45h1M10,45h1M11,45h1M12,45h1M13,45h1M15,45h1M16,45h1M24,45h1M25,45h1M31,45h1M33,45h1M35,45h1M37,45h1M39,45h1M40,45h1M42,45h1M45,45h1M46,45h1M47,45h1M48,45h1M49,45h1M51,45h1M53,45h1M56,45h1M59,45h1M62,45h1M63,45h1M65,45h1M68,45h1M72,45h1M74,45h1M76,45h1M78,45h1M82,45h1M84,45h1M85,45h1M90,45h1M96,45h1M98,45h1M99,45h1M0,46h1M1,46h1M2,46h1M3,46h1M5,46h1M6,46h1M7,46h1M8,46h1M9,46h1M12,46h1M13,46h1M14,46h1M15,46h1M16,46h1M21,46h1M22,46h1M23,46h1M24,46h1M25,46h1M26,46h1M27,46h1M28,46h1M29,46h1M30,46h1M31,46h1M32,46h1M34,46h1M40,46h1M42,46h1M43,46h1M49,46h1M53,46h1M54,46h1M55,46h1M57,46h1M58,46h1M60,46h1M62,46h1M64,46h1M69,46h1M74,46h1M76,46h1M78,46h1M80,46h1M85,46h1M89,46h1M90,46h1M93,46h1M94,46h1M95,46h1M97,46h1M99,46h1M100,46h1M0,47h1M3,47h1M7,47h1M11,47h1M13,47h1M17,47h1M18,47h1M20,47h1M22,47h1M24,47h1M25,47h1M26,47h1M28,47h1M31,47h1M33,47h1M34,47h1M37,47h1M38,47h1M39,47h1M42,47h1M43,47h1M45,47h1M47,47h1M49,47h1M52,47h1M53,47h1M54,47h1M57,47h1M59,47h1M62,47h1M65,47h1M71,47h1M73,47h1M74,47h1M76,47h1M77,47h1M78,47h1M79,47h1M80,47h1M82,47h1M85,47h1M86,47h1M88,47h1M91,47h1M93,47h1M99,47h1M100,47h1M0,48h1M2,48h1M3,48h1M4,48h1M5,48h1M6,48h1M7,48h1M8,48h1M9,48h1M10,48h1M11,48h1M12,48h1M15,48h1M20,48h1M21,48h1M22,48h1M24,48h1M25,48h1M26,48h1M27,48h1M28,48h1M29,48h1M30,48h1M31,48h1M33,48h1M34,48h1M35,48h1M36,48h1M37,48h1M38,48h1M41,48h1M42,48h1M43,48h1M46,48h1M47,48h1M48,48h1M49,48h1M50,48h1M51,48h1M52,48h1M54,48h1M56,48h1M57,48h1M58,48h1M62,48h1M65,48h1M67,48h1M69,48h1M70,48h1M71,48h1M72,48h1M73,48h1M74,48h1M76,48h1M77,48h1M78,48h1M79,48h1M81,48h1M85,48h1M88,48h1M90,48h1M92,48h1M93,48h1M94,48h1M95,48h1M96,48h1M97,48h1M98,48h1M99,48h1M1,49h1M4,49h1M8,49h1M9,49h1M10,49h1M13,49h1M14,49h1M16,49h1M19,49h1M22,49h1M26,49h1M30,49h1M31,49h1M34,49h1M35,49h1M37,49h1M39,49h1M43,49h1M45,49h1M46,49h1M47,49h1M48,49h1M52,49h1M58,49h1M59,49h1M61,49h1M62,49h1M63,49h1M64,49h1M68,49h1M70,49h1M74,49h1M75,49h1M76,49h1M83,49h1M85,49h1M87,49h1M91,49h1M92,49h1M96,49h1M98,49h1M0,50h1M1,50h1M4,50h1M6,50h1M8,50h1M10,50h1M11,50h1M13,50h1M15,50h1M16,50h1M19,50h1M20,50h1M21,50h1M24,50h1M25,50h1M26,50h1M28,50h1M30,50h1M33,50h1M34,50h1M35,50h1M37,50h1M39,50h1M42,50h1M44,50h1M45,50h1M47,50h1M48,50h1M50,50h1M52,50h1M53,50h1M58,50h1M59,50h1M60,50h1M61,50h1M62,50h1M66,50h1M67,50h1M69,50h1M70,50h1M72,50h1M74,50h1M75,50h1M77,50h1M78,50h1M80,50h1M81,50h1M82,50h1M83,50h1M84,50h1M85,50h1M86,50h1M87,50h1M88,50h1M90,50h1M92,50h1M94,50h1M96,50h1M98,50h1M1,51h1M2,51h1M3,51h1M4,51h1M8,51h1M9,51h1M11,51h1M15,51h1M18,51h1M19,51h1M20,51h1M24,51h1M25,51h1M26,51h1M30,51h1M31,51h1M33,51h1M35,51h1M36,51h1M37,51h1M40,51h1M41,51h1M42,51h1M43,51h1M44,51h1M47,51h1M48,51h1M52,51h1M53,51h1M54,51h1M56,51h1M59,51h1M60,51h1M62,51h1M63,51h1M65,51h1M70,51h1M74,51h1M75,51h1M80,51h1M82,51h1M84,51h1M92,51h1M96,51h1M97,51h1M98,51h1M99,51h1M0,52h1M2,52h1M4,52h1M5,52h1M6,52h1M7,52h1M8,52h1M9,52h1M12,52h1M13,52h1M15,52h1M17,52h1M18,52h1M20,52h1M22,52h1M24,52h1M26,52h1M27,52h1M28,52h1M29,52h1M30,52h1M32,52h1M35,52h1M36,52h1M37,52h1M39,52h1M45,52h1M46,52h1M48,52h1M49,52h1M50,52h1M51,52h1M52,52h1M53,52h1M56,52h1M57,52h1M60,52h1M62,52h1M63,52h1M64,52h1M65,52h1M66,52h1M68,52h1M69,52h1M70,52h1M71,52h1M72,52h1M73,52h1M74,52h1M76,52h1M77,52h1M79,52h1M80,52h1M81,52h1M82,52h1M86,52h1M90,52h1M91,52h1M92,52h1M93,52h1M94,52h1M95,52h1M96,52h1M97,52h1M98,52h1M99,52h1M0,53h1M1,53h1M2,53h1M3,53h1M4,53h1M9,53h1M11,53h1M13,53h1M14,53h1M17,53h1M18,53h1M20,53h1M21,53h1M22,53h1M23,53h1M24,53h1M28,53h1M30,53h1M31,53h1M34,53h1M38,53h1M39,53h1M41,53h1M44,53h1M48,53h1M49,53h1M52,53h1M58,53h1M60,53h1M66,53h1M67,53h1M68,53h1M70,53h1M72,53h1M73,53h1M74,53h1M75,53h1M76,53h1M80,53h1M82,53h1M85,53h1M86,53h1M87,53h1M88,53h1M90,53h1M93,53h1M94,53h1M96,53h1M98,53h1M0,54h1M1,54h1M3,54h1M6,54h1M8,54h1M9,54h1M10,54h1M12,54h1M15,54h1M17,54h1M19,54h1M20,54h1M21,54h1M23,54h1M25,54h1M26,54h1M27,54h1M30,54h1M31,54h1M32,54h1M34,54h1M37,54h1M39,54h1M41,54h1M43,54h1M44,54h1M45,54h1M46,54h1M47,54h1M48,54h1M49,54h1M51,54h1M54,54h1M55,54h1M56,54h1M58,54h1M59,54h1M60,54h1M63,54h1M69,54h1M71,54h1M72,54h1M73,54h1M74,54h1M75,54h1M78,54h1M83,54h1M84,54h1M85,54h1M87,54h1M88,54h1M90,54h1M92,54h1M93,54h1M94,54h1M97,54h1M98,54h1M100,54h1M2,55h1M4,55h1M5,55h1M8,55h1M10,55h1M11,55h1M15,55h1M18,55h1M19,55h1M21,55h1M24,55h1M28,55h1M29,55h1M32,55h1M36,55h1M37,55h1M38,55h1M39,55h1M40,55h1M42,55h1M44,55h1M45,55h1M47,55h1M48,55h1M50,55h1M53,55h1M56,55h1M57,55h1M61,55h1M63,55h1M64,55h1M67,55h1M70,55h1M71,55h1M73,55h1M77,55h1M78,55h1M79,55h1M80,55h1M81,55h1M83,55h1M84,55h1M85,55h1M87,55h1M89,55h1M90,55h1M91,55h1M92,55h1M94,55h1M95,55h1M96,55h1M97,55h1M100,55h1M1,56h1M5,56h1M6,56h1M7,56h1M9,56h1M11,56h1M12,56h1M14,56h1M15,56h1M17,56h1M20,56h1M24,56h1M27,56h1M29,56h1M30,56h1M32,56h1M33,56h1M35,56h1M36,56h1M37,56h1M42,56h1M45,56h1M48,56h1M49,56h1M52,56h1M56,56h1M57,56h1M59,56h1M62,56h1M66,56h1M67,56h1M70,56h1M71,56h1M72,56h1M73,56h1M74,56h1M77,56h1M79,56h1M81,56h1M82,56h1M84,56h1M86,56h1M89,56h1M90,56h1M91,56h1M92,56h1M95,56h1M97,56h1M98,56h1M99,56h1M0,57h1M4,57h1M11,57h1M14,57h1M15,57h1M17,57h1M24,57h1M27,57h1M28,57h1M29,57h1M30,57h1M34,57h1M35,57h1M36,57h1M38,57h1M39,57h1M42,57h1M43,57h1M44,57h1M45,57h1M48,57h1M50,57h1M51,57h1M53,57h1M54,57h1M55,57h1M56,57h1M58,57h1M59,57h1M62,57h1M63,57h1M64,57h1M68,57h1M73,57h1M74,57h1M76,57h1M78,57h1M83,57h1M84,57h1M85,57h1M86,57h1M88,57h1M93,57h1M94,57h1M98,57h1M99,57h1M1,58h1M2,58h1M4,58h1M5,58h1M6,58h1M8,58h1M10,58h1M13,58h1M15,58h1M16,58h1M18,58h1M20,58h1M22,58h1M23,58h1M24,58h1M26,58h1M28,58h1M29,58h1M37,58h1M38,58h1M39,58h1M41,58h1M43,58h1M44,58h1M45,58h1M51,58h1M52,58h1M54,58h1M56,58h1M58,58h1M59,58h1M61,58h1M63,58h1M64,58h1M66,58h1M71,58h1M72,58h1M73,58h1M74,58h1M76,58h1M78,58h1M82,58h1M83,58h1M84,58h1M85,58h1M86,58h1M87,58h1M88,58h1M90,58h1M92,58h1M93,58h1M95,58h1M98,58h1M2,59h1M5,59h1M7,59h1M9,59h1M11,59h1M12,59h1M14,59h1M15,59h1M17,59h1M18,59h1M20,59h1M21,59h1M23,59h1M25,59h1M27,59h1M28,59h1M29,59h1M30,59h1M31,59h1M34,59h1M37,59h1M39,59h1M40,59h1M41,59h1M43,59h1M44,59h1M47,59h1M50,59h1M55,59h1M59,59h1M67,59h1M70,59h1M74,59h1M76,59h1M77,59h1M82,59h1M87,59h1M88,59h1M91,59h1M92,59h1M93,59h1M95,59h1M96,59h1M97,59h1M99,59h1M1,60h1M5,60h1M6,60h1M7,60h1M11,60h1M16,60h1M21,60h1M25,60h1M26,60h1M28,60h1M34,60h1M36,60h1M38,60h1M44,60h1M48,60h1M50,60h1M51,60h1M55,60h1M56,60h1M61,60h1M64,60h1M65,60h1M70,60h1M71,60h1M72,60h1M79,60h1M80,60h1M87,60h1M88,60h1M89,60h1M90,60h1M91,60h1M94,60h1M95,60h1M98,60h1M99,60h1M0,61h1M1,61h1M2,61h1M5,61h1M7,61h1M10,61h1M12,61h1M13,61h1M14,61h1M15,61h1M16,61h1M17,61h1M18,61h1M24,61h1M26,61h1M32,61h1M34,61h1M36,61h1M38,61h1M39,61h1M40,61h1M41,61h1M42,61h1M43,61h1M52,61h1M56,61h1M57,61h1M58,61h1M62,61h1M68,61h1M69,61h1M73,61h1M74,61h1M76,61h1M78,61h1M80,61h1M82,61h1M84,61h1M85,61h1M86,61h1M88,61h1M98,61h1M99,61h1M0,62h1M1,62h1M2,62h1M6,62h1M7,62h1M11,62h1M12,62h1M13,62h1M14,62h1M16,62h1M17,62h1M18,62h1M19,62h1M21,62h1M22,62h1M25,62h1M31,62h1M33,62h1M35,62h1M36,62h1M40,62h1M41,62h1M42,62h1M43,62h1M45,62h1M46,62h1M47,62h1M51,62h1M53,62h1M54,62h1M56,62h1M58,62h1M60,62h1M62,62h1M63,62h1M64,62h1M65,62h1M66,62h1M69,62h1M70,62h1M71,62h1M72,62h1M74,62h1M75,62h1M76,62h1M79,62h1M80,62h1M85,62h1M86,62h1M88,62h1M90,62h1M93,62h1M94,62h1M99,62h1M4,63h1M9,63h1M10,63h1M11,63h1M12,63h1M15,63h1M19,63h1M20,63h1M27,63h1M29,63h1M31,63h1M32,63h1M33,63h1M36,63h1M38,63h1M39,63h1M41,63h1M42,63h1M44,63h1M45,63h1M47,63h1M48,63h1M51,63h1M52,63h1M53,63h1M55,63h1M56,63h1M57,63h1M58,63h1M61,63h1M65,63h1M67,63h1M68,63h1M70,63h1M74,63h1M81,63h1M82,63h1M86,63h1M87,63h1M92,63h1M94,63h1M97,63h1M99,63h1M1,64h1M4,64h1M6,64h1M8,64h1M12,64h1M13,64h1M15,64h1M17,64h1M19,64h1M23,64h1M24,64h1M30,64h1M34,64h1M35,64h1M39,64h1M41,64h1M42,64h1M45,64h1M46,64h1M48,64h1M50,64h1M54,64h1M57,64h1M63,64h1M64,64h1M66,64h1M67,64h1M70,64h1M71,64h1M73,64h1M76,64h1M77,64h1M78,64h1M79,64h1M81,64h1M84,64h1M85,64h1M87,64h1M92,64h1M93,64h1M98,64h1M99,64h1M2,65h1M8,65h1M9,65h1M10,65h1M14,65h1M16,65h1M17,65h1M18,65h1M19,65h1M20,65h1M21,65h1M22,65h1M28,65h1M29,65h1M30,65h1M31,65h1M37,65h1M38,65h1M39,65h1M40,65h1M45,65h1M51,65h1M54,65h1M56,65h1M57,65h1M58,65h1M60,65h1M62,65h1M64,65h1M66,65h1M68,65h1M71,65h1M73,65h1M75,65h1M80,65h1M82,65h1M83,65h1M84,65h1M85,65h1M87,65h1M90,65h1M93,65h1M97,65h1M98,65h1M99,65h1M1,66h1M3,66h1M4,66h1M5,66h1M6,66h1M7,66h1M10,66h1M13,66h1M14,66h1M15,66h1M17,66h1M18,66h1M20,66h1M21,66h1M22,66h1M24,66h1M25,66h1M28,66h1M29,66h1M30,66h1M32,66h1M33,66h1M34,66h1M35,66h1M36,66h1M38,66h1M41,66h1M48,66h1M49,66h1M50,66h1M52,66h1M54,66h1M55,66h1M57,66h1M59,66h1M60,66h1M62,66h1M63,66h1M64,66h1M68,66h1M71,66h1M72,66h1M73,66h1M74,66h1M76,66h1M78,66h1M80,66h1M84,66h1M85,66h1M86,66h1M88,66h1M92,66h1M98,66h1M99,66h1M1,67h1M2,67h1M4,67h1M5,67h1M9,67h1M11,67h1M12,67h1M14,67h1M16,67h1M20,67h1M22,67h1M25,67h1M31,67h1M33,67h1M35,67h1M40,67h1M42,67h1M46,67h1M51,67h1M52,67h1M53,67h1M55,67h1M56,67h1M57,67h1M58,67h1M62,67h1M64,67h1M67,67h1M68,67h1M70,67h1M76,67h1M79,67h1M80,67h1M82,67h1M87,67h1M88,67h1M90,67h1M91,67h1M92,67h1M93,67h1M95,67h1M96,67h1M99,67h1M1,68h1M2,68h1M3,68h1M6,68h1M10,68h1M12,68h1M13,68h1M14,68h1M16,68h1M21,68h1M24,68h1M25,68h1M26,68h1M28,68h1M29,68h1M30,68h1M31,68h1M32,68h1M33,68h1M37,68h1M39,68h1M41,68h1M42,68h1M44,68h1M45,68h1M46,68h1M49,68h1M51,68h1M52,68h1M54,68h1M57,68h1M58,68h1M60,68h1M61,68h1M62,68h1M66,68h1M67,68h1M68,68h1M72,68h1M77,68h1M78,68h1M79,68h1M80,68h1M81,68h1M84,68h1M86,68h1M88,68h1M91,68h1M96,68h1M97,68h1M98,68h1M99,68h1M1,69h1M8,69h1M9,69h1M12,69h1M13,69h1M14,69h1M15,69h1M16,69h1M19,69h1M21,69h1M23,69h1M25,69h1M27,69h1M28,69h1M29,69h1M30,69h1M32,69h1M36,69h1M37,69h1M38,69h1M41,69h1M43,69h1M44,69h1M45,69h1M46,69h1M48,69h1M52,69h1M53,69h1M55,69h1M58,69h1M59,69h1M60,69h1M63,69h1M65,69h1M66,69h1M67,69h1M68,69h1M69,69h1M70,69h1M71,69h1M72,69h1M74,69h1M75,69h1M78,69h1M80,69h1M83,69h1M84,69h1M85,69h1M86,69h1M87,69h1M90,69h1M91,69h1M93,69h1M96,69h1M98,69h1M0,70h1M2,70h1M4,70h1M5,70h1M6,70h1M7,70h1M8,70h1M10,70h1M12,70h1M15,70h1M16,70h1M18,70h1M20,70h1M21,70h1M25,70h1M26,70h1M27,70h1M28,70h1M29,70h1M30,70h1M31,70h1M32,70h1M38,70h1M39,70h1M40,70h1M42,70h1M45,70h1M46,70h1M48,70h1M49,70h1M50,70h1M51,70h1M52,70h1M54,70h1M56,70h1M60,70h1M61,70h1M62,70h1M68,70h1M69,70h1M70,70h1M71,70h1M72,70h1M73,70h1M74,70h1M75,70h1M76,70h1M78,70h1M79,70h1M81,70h1M86,70h1M90,70h1M92,70h1M93,70h1M94,70h1M95,70h1M96,70h1M0,71h1M4,71h1M8,71h1M9,71h1M10,71h1M11,71h1M12,71h1M13,71h1M16,71h1M18,71h1M19,71h1M21,71h1M22,71h1M24,71h1M25,71h1M26,71h1M30,71h1M32,71h1M35,71h1M36,71h1M38,71h1M39,71h1M40,71h1M43,71h1M46,71h1M48,71h1M52,71h1M54,71h1M55,71h1M56,71h1M57,71h1M58,71h1M64,71h1M67,71h1M68,71h1M70,71h1M74,71h1M75,71h1M76,71h1M79,71h1M82,71h1M83,71h1M86,71h1M87,71h1M88,71h1M89,71h1M90,71h1M91,71h1M92,71h1M96,71h1M98,71h1M99,71h1M0,72h1M4,72h1M6,72h1M8,72h1M10,72h1M13,72h1M14,72h1M17,72h1M18,72h1M23,72h1M25,72h1M26,72h1M28,72h1M30,72h1M31,72h1M32,72h1M35,72h1M36,72h1M38,72h1M39,72h1M41,72h1M45,72h1M47,72h1M48,72h1M50,72h1M52,72h1M55,72h1M59,72h1M61,72h1M62,72h1M63,72h1M64,72h1M66,72h1M67,72h1M68,72h1M70,72h1M72,72h1M74,72h1M76,72h1M78,72h1M79,72h1M81,72h1M85,72h1M87,72h1M89,72h1M91,72h1M92,72h1M94,72h1M96,72h1M97,72h1M2,73h1M3,73h1M4,73h1M8,73h1M9,73h1M16,73h1M21,73h1M22,73h1M23,73h1M25,73h1M26,73h1M30,73h1M31,73h1M32,73h1M33,73h1M34,73h1M36,73h1M40,73h1M42,73h1M44,73h1M48,73h1M52,73h1M55,73h1M57,73h1M58,73h1M59,73h1M60,73h1M65,73h1M66,73h1M67,73h1M68,73h1M69,73h1M70,73h1M74,73h1M78,73h1M80,73h1M82,73h1M83,73h1M84,73h1M85,73h1M87,73h1M91,73h1M92,73h1M96,73h1M97,73h1M99,73h1M100,73h1M0,74h1M2,74h1M4,74h1M5,74h1M6,74h1M7,74h1M8,74h1M9,74h1M10,74h1M14,74h1M16,74h1M18,74h1M22,74h1M23,74h1M24,74h1M26,74h1M27,74h1M28,74h1M29,74h1M30,74h1M31,74h1M32,74h1M34,74h1M35,74h1M37,74h1M38,74h1M39,74h1M41,74h1M44,74h1M46,74h1M47,74h1M48,74h1M49,74h1M50,74h1M51,74h1M52,74h1M53,74h1M54,74h1M55,74h1M59,74h1M61,74h1M65,74h1M68,74h1M69,74h1M70,74h1M71,74h1M72,74h1M73,74h1M74,74h1M75,74h1M76,74h1M78,74h1M79,74h1M84,74h1M85,74h1M86,74h1M88,74h1M91,74h1M92,74h1M93,74h1M94,74h1M95,74h1M96,74h1M98,74h1M99,74h1M100,74h1M0,75h1M1,75h1M2,75h1M3,75h1M4,75h1M7,75h1M9,75h1M10,75h1M13,75h1M15,75h1M18,75h1M19,75h1M25,75h1M27,75h1M29,75h1M30,75h1M33,75h1M38,75h1M41,75h1M43,75h1M44,75h1M45,75h1M47,75h1M49,75h1M50,75h1M51,75h1M52,75h1M53,75h1M54,75h1M55,75h1M56,75h1M57,75h1M58,75h1M60,75h1M62,75h1M63,75h1M64,75h1M67,75h1M68,75h1M69,75h1M71,75h1M74,75h1M76,75h1M77,75h1M79,75h1M81,75h1M82,75h1M83,75h1M84,75h1M85,75h1M87,75h1M88,75h1M93,75h1M97,75h1M98,75h1M99,75h1M100,75h1M0,76h1M1,76h1M2,76h1M3,76h1M4,76h1M5,76h1M6,76h1M8,76h1M9,76h1M10,76h1M16,76h1M18,76h1M19,76h1M22,76h1M26,76h1M31,76h1M32,76h1M36,76h1M39,76h1M40,76h1M41,76h1M44,76h1M45,76h1M47,76h1M48,76h1M49,76h1M50,76h1M52,76h1M55,76h1M56,76h1M59,76h1M60,76h1M62,76h1M63,76h1M67,76h1M68,76h1M69,76h1M71,76h1M72,76h1M73,76h1M74,76h1M75,76h1M76,76h1M81,76h1M83,76h1M85,76h1M93,76h1M95,76h1M98,76h1M99,76h1M0,77h1M2,77h1M3,77h1M7,77h1M15,77h1M16,77h1M17,77h1M18,77h1M19,77h1M20,77h1M22,77h1M23,77h1M25,77h1M27,77h1M28,77h1M29,77h1M33,77h1M36,77h1M37,77h1M39,77h1M41,77h1M47,77h1M48,77h1M49,77h1M50,77h1M51,77h1M52,77h1M54,77h1M55,77h1M57,77h1M59,77h1M60,77h1M61,77h1M63,77h1M65,77h1M66,77h1M67,77h1M68,77h1M72,77h1M74,77h1M79,77h1M80,77h1M84,77h1M85,77h1M86,77h1M87,77h1M90,77h1M93,77h1M94,77h1M95,77h1M97,77h1M98,77h1M0,78h1M3,78h1M5,78h1M6,78h1M8,78h1M10,78h1M11,78h1M14,78h1M16,78h1M19,78h1M20,78h1M21,78h1M23,78h1M24,78h1M26,78h1M27,78h1M28,78h1M29,78h1M31,78h1M32,78h1M33,78h1M35,78h1M36,78h1M38,78h1M40,78h1M44,78h1M45,78h1M48,78h1M52,78h1M53,78h1M54,78h1M62,78h1M63,78h1M64,78h1M65,78h1M67,78h1M71,78h1M73,78h1M75,78h1M78,78h1M79,78h1M80,78h1M81,78h1M84,78h1M86,78h1M87,78h1M89,78h1M91,78h1M92,78h1M94,78h1M96,78h1M99,78h1M1,79h1M4,79h1M5,79h1M7,79h1M8,79h1M9,79h1M10,79h1M11,79h1M12,79h1M13,79h1M15,79h1M16,79h1M17,79h1M18,79h1M19,79h1M21,79h1M24,79h1M25,79h1M27,79h1M28,79h1M29,79h1M31,79h1M32,79h1M34,79h1M36,79h1M37,79h1M38,79h1M39,79h1M42,79h1M43,79h1M47,79h1M49,79h1M50,79h1M51,79h1M55,79h1M57,79h1M58,79h1M59,79h1M60,79h1M65,79h1M69,79h1M70,79h1M71,79h1M72,79h1M73,79h1M74,79h1M75,79h1M76,79h1M77,79h1M81,79h1M82,79h1M83,79h1M84,79h1M85,79h1M86,79h1M87,79h1M91,79h1M93,79h1M97,79h1M98,79h1M99,79h1M0,80h1M3,80h1M4,80h1M5,80h1M6,80h1M8,80h1M9,80h1M11,80h1M14,80h1M21,80h1M24,80h1M27,80h1M29,80h1M30,80h1M31,80h1M32,80h1M33,80h1M34,80h1M35,80h1M36,80h1M38,80h1M39,80h1M40,80h1M42,80h1M43,80h1M46,80h1M48,80h1M49,80h1M51,80h1M57,80h1M58,80h1M59,80h1M60,80h1M61,80h1M62,80h1M66,80h1M67,80h1M68,80h1M69,80h1M70,80h1M72,80h1M73,80h1M74,80h1M75,80h1M76,80h1M77,80h1M78,80h1M80,80h1M83,80h1M87,80h1M88,80h1M90,80h1M96,80h1M97,80h1M99,80h1M0,81h1M1,81h1M3,81h1M5,81h1M8,81h1M11,81h1M12,81h1M14,81h1M19,81h1M24,81h1M27,81h1M28,81h1M32,81h1M33,81h1M37,81h1M41,81h1M42,81h1M44,81h1M45,81h1M48,81h1M50,81h1M52,81h1M54,81h1M57,81h1M58,81h1M60,81h1M61,81h1M62,81h1M64,81h1M70,81h1M71,81h1M72,81h1M75,81h1M80,81h1M84,81h1M85,81h1M92,81h1M93,81h1M94,81h1M96,81h1M97,81h1M98,81h1M99,81h1M1,82h1M4,82h1M5,82h1M6,82h1M7,82h1M13,82h1M14,82h1M15,82h1M16,82h1M21,82h1M22,82h1M23,82h1M24,82h1M25,82h1M26,82h1M29,82h1M33,82h1M37,82h1M44,82h1M46,82h1M47,82h1M48,82h1M51,82h1M52,82h1M54,82h1M57,82h1M58,82h1M63,82h1M69,82h1M71,82h1M76,82h1M78,82h1M82,82h1M83,82h1M87,82h1M90,82h1M92,82h1M93,82h1M95,82h1M0,83h1M1,83h1M2,83h1M3,83h1M4,83h1M7,83h1M9,83h1M10,83h1M12,83h1M13,83h1M15,83h1M21,83h1M29,83h1M31,83h1M33,83h1M34,83h1M35,83h1M39,83h1M43,83h1M46,83h1M47,83h1M49,83h1M51,83h1M53,83h1M54,83h1M56,83h1M58,83h1M61,83h1M63,83h1M67,83h1M68,83h1M69,83h1M73,83h1M82,83h1M85,83h1M87,83h1M88,83h1M89,83h1M97,83h1M98,83h1M99,83h1M100,83h1M0,84h1M1,84h1M2,84h1M4,84h1M6,84h1M8,84h1M9,84h1M14,84h1M15,84h1M17,84h1M18,84h1M19,84h1M21,84h1M22,84h1M23,84h1M25,84h1M27,84h1M34,84h1M36,84h1M37,84h1M40,84h1M41,84h1M42,84h1M43,84h1M44,84h1M45,84h1M46,84h1M49,84h1M50,84h1M52,84h1M53,84h1M54,84h1M55,84h1M59,84h1M61,84h1M63,84h1M64,84h1M67,84h1M68,84h1M70,84h1M72,84h1M73,84h1M74,84h1M75,84h1M76,84h1M77,84h1M78,84h1M80,84h1M82,84h1M83,84h1M84,84h1M86,84h1M87,84h1M90,84h1M92,84h1M96,84h1M97,84h1M98,84h1M99,84h1M0,85h1M1,85h1M2,85h1M4,85h1M5,85h1M9,85h1M10,85h1M11,85h1M18,85h1M20,85h1M21,85h1M24,85h1M29,85h1M30,85h1M33,85h1M35,85h1M38,85h1M39,85h1M40,85h1M42,85h1M44,85h1M45,85h1M49,85h1M51,85h1M53,85h1M54,85h1M56,85h1M58,85h1M59,85h1M70,85h1M71,85h1M77,85h1M78,85h1M80,85h1M81,85h1M82,85h1M83,85h1M84,85h1M85,85h1M86,85h1M87,85h1M90,85h1M93,85h1M94,85h1M95,85h1M96,85h1M98,85h1M100,85h1M0,86h1M3,86h1M5,86h1M6,86h1M9,86h1M10,86h1M13,86h1M14,86h1M15,86h1M16,86h1M19,86h1M26,86h1M27,86h1M30,86h1M31,86h1M32,86h1M34,86h1M35,86h1M44,86h1M45,86h1M48,86h1M50,86h1M51,86h1M52,86h1M53,86h1M54,86h1M55,86h1M58,86h1M59,86h1M60,86h1M61,86h1M62,86h1M63,86h1M65,86h1M66,86h1M70,86h1M71,86h1M75,86h1M80,86h1M81,86h1M82,86h1M84,86h1M89,86h1M93,86h1M96,86h1M99,86h1M100,86h1M4,87h1M5,87h1M7,87h1M8,87h1M9,87h1M14,87h1M15,87h1M18,87h1M19,87h1M20,87h1M22,87h1M25,87h1M26,87h1M27,87h1M28,87h1M29,87h1M31,87h1M32,87h1M33,87h1M37,87h1M38,87h1M39,87h1M42,87h1M43,87h1M44,87h1M45,87h1M48,87h1M51,87h1M52,87h1M53,87h1M54,87h1M61,87h1M63,87h1M66,87h1M67,87h1M68,87h1M69,87h1M70,87h1M71,87h1M74,87h1M77,87h1M81,87h1M82,87h1M83,87h1M87,87h1M88,87h1M89,87h1M92,87h1M95,87h1M97,87h1M98,87h1M0,88h1M1,88h1M2,88h1M5,88h1M6,88h1M8,88h1M9,88h1M11,88h1M14,88h1M18,88h1M21,88h1M24,88h1M25,88h1M28,88h1M30,88h1M31,88h1M36,88h1M37,88h1M38,88h1M42,88h1M43,88h1M44,88h1M48,88h1M49,88h1M50,88h1M52,88h1M53,88h1M55,88h1M56,88h1M57,88h1M58,88h1M61,88h1M62,88h1M66,88h1M67,88h1M71,88h1M72,88h1M73,88h1M74,88h1M76,88h1M78,88h1M85,88h1M86,88h1M90,88h1M91,88h1M92,88h1M95,88h1M96,88h1M97,88h1M98,88h1M99,88h1M0,89h1M1,89h1M3,89h1M4,89h1M5,89h1M9,89h1M10,89h1M14,89h1M15,89h1M18,89h1M20,89h1M21,89h1M23,89h1M25,89h1M26,89h1M29,89h1M31,89h1M32,89h1M36,89h1M37,89h1M42,89h1M44,89h1M46,89h1M49,89h1M53,89h1M54,89h1M55,89h1M56,89h1M57,89h1M59,89h1M60,89h1M61,89h1M62,89h1M63,89h1M64,89h1M67,89h1M68,89h1M71,89h1M75,89h1M77,89h1M78,89h1M80,89h1M81,89h1M83,89h1M84,89h1M86,89h1M87,89h1M89,89h1M90,89h1M94,89h1M95,89h1M97,89h1M100,89h1M0,90h1M3,90h1M4,90h1M6,90h1M7,90h1M8,90h1M12,90h1M13,90h1M14,90h1M15,90h1M20,90h1M21,90h1M22,90h1M25,90h1M26,90h1M27,90h1M29,90h1M30,90h1M31,90h1M32,90h1M34,90h1M42,90h1M43,90h1M45,90h1M48,90h1M49,90h1M50,90h1M51,90h1M52,90h1M56,90h1M57,90h1M59,90h1M60,90h1M61,90h1M66,90h1M69,90h1M71,90h1M72,90h1M74,90h1M75,90h1M77,90h1M80,90h1M81,90h1M82,90h1M84,90h1M89,90h1M92,90h1M95,90h1M98,90h1M0,91h1M2,91h1M3,91h1M5,91h1M9,91h1M17,91h1M18,91h1M19,91h1M21,91h1M22,91h1M24,91h1M25,91h1M27,91h1M29,91h1M32,91h1M38,91h1M39,91h1M45,91h1M47,91h1M49,91h1M50,91h1M54,91h1M56,91h1M57,91h1M58,91h1M59,91h1M61,91h1M68,91h1M70,91h1M71,91h1M73,91h1M74,91h1M75,91h1M79,91h1M82,91h1M83,91h1M85,91h1M87,91h1M88,91h1M92,91h1M93,91h1M95,91h1M98,91h1M99,91h1M4,92h1M6,92h1M11,92h1M12,92h1M15,92h1M17,92h1M19,92h1M20,92h1M23,92h1M24,92h1M26,92h1M27,92h1M28,92h1M29,92h1M30,92h1M32,92h1M34,92h1M38,92h1M39,92h1M40,92h1M41,92h1M42,92h1M48,92h1M49,92h1M50,92h1M51,92h1M52,92h1M53,92h1M54,92h1M56,92h1M57,92h1M58,92h1M59,92h1M61,92h1M62,92h1M65,92h1M66,92h1M67,92h1M69,92h1M70,92h1M71,92h1M72,92h1M73,92h1M74,92h1M75,92h1M76,92h1M78,92h1M79,92h1M80,92h1M81,92h1M82,92h1M83,92h1M84,92h1M87,92h1M90,92h1M91,92h1M92,92h1M93,92h1M94,92h1M95,92h1M96,92h1M97,92h1M98,92h1M99,92h1M8,93h1M14,93h1M17,93h1M21,93h1M22,93h1M23,93h1M25,93h1M26,93h1M30,93h1M31,93h1M32,93h1M34,93h1M36,93h1M37,93h1M38,93h1M40,93h1M44,93h1M45,93h1M46,93h1M47,93h1M48,93h1M52,93h1M53,93h1M55,93h1M58,93h1M64,93h1M66,93h1M68,93h1M70,93h1M74,93h1M78,93h1M80,93h1M81,93h1M83,93h1M84,93h1M85,93h1M87,93h1M89,93h1M91,93h1M92,93h1M96,93h1M98,93h1M100,93h1M0,94h1M1,94h1M2,94h1M3,94h1M4,94h1M5,94h1M6,94h1M8,94h1M12,94h1M13,94h1M14,94h1M18,94h1M20,94h1M21,94h1M23,94h1M26,94h1M28,94h1M30,94h1M33,94h1M34,94h1M39,94h1M40,94h1M41,94h1M42,94h1M43,94h1M44,94h1M45,94h1M46,94h1M48,94h1M50,94h1M52,94h1M53,94h1M54,94h1M55,94h1M61,94h1M65,94h1M66,94h1M70,94h1M72,94h1M74,94h1M76,94h1M77,94h1M79,94h1M80,94h1M82,94h1M85,94h1M88,94h1M91,94h1M92,94h1M94,94h1M96,94h1M100,94h1M0,95h1M6,95h1M8,95h1M9,95h1M10,95h1M11,95h1M12,95h1M14,95h1M15,95h1M16,95h1M17,95h1M18,95h1M19,95h1M20,95h1M22,95h1M24,95h1M25,95h1M26,95h1M30,95h1M31,95h1M32,95h1M33,95h1M35,95h1M36,95h1M40,95h1M41,95h1M42,95h1M43,95h1M44,95h1M45,95h1M46,95h1M47,95h1M48,95h1M52,95h1M53,95h1M57,95h1M60,95h1M63,95h1M66,95h1M67,95h1M68,95h1M69,95h1M70,95h1M74,95h1M75,95h1M76,95h1M80,95h1M81,95h1M82,95h1M83,95h1M85,95h1M86,95h1M87,95h1M90,95h1M91,95h1M92,95h1M96,95h1M97,95h1M99,95h1M0,96h1M2,96h1M3,96h1M4,96h1M6,96h1M8,96h1M9,96h1M10,96h1M11,96h1M15,96h1M18,96h1M23,96h1M24,96h1M26,96h1M27,96h1M28,96h1M29,96h1M30,96h1M32,96h1M35,96h1M38,96h1M40,96h1M43,96h1M44,96h1M45,96h1M47,96h1M48,96h1M49,96h1M50,96h1M51,96h1M52,96h1M53,96h1M55,96h1M56,96h1M60,96h1M61,96h1M62,96h1M63,96h1M66,96h1M67,96h1M68,96h1M69,96h1M70,96h1M71,96h1M72,96h1M73,96h1M74,96h1M76,96h1M77,96h1M78,96h1M85,96h1M86,96h1M88,96h1M89,96h1M90,96h1M91,96h1M92,96h1M93,96h1M94,96h1M95,96h1M96,96h1M98,96h1M99,96h1M0,97h1M2,97h1M3,97h1M4,97h1M6,97h1M9,97h1M13,97h1M14,97h1M15,97h1M20,97h1M22,97h1M23,97h1M24,97h1M25,97h1M27,97h1M29,97h1M31,97h1M33,97h1M35,97h1M36,97h1M37,97h1M39,97h1M44,97h1M45,97h1M46,97h1M48,97h1M50,97h1M52,97h1M53,97h1M54,97h1M57,97h1M58,97h1M59,97h1M60,97h1M62,97h1M63,97h1M65,97h1M68,97h1M69,97h1M70,97h1M72,97h1M73,97h1M75,97h1M78,97h1M79,97h1M80,97h1M83,97h1M84,97h1M85,97h1M86,97h1M87,97h1M89,97h1M92,97h1M93,97h1M95,97h1M96,97h1M0,98h1M2,98h1M3,98h1M4,98h1M6,98h1M13,98h1M16,98h1M17,98h1M18,98h1M21,98h1M23,98h1M30,98h1M32,98h1M35,98h1M39,98h1M41,98h1M42,98h1M48,98h1M50,98h1M51,98h1M55,98h1M57,98h1M61,98h1M62,98h1M65,98h1M66,98h1M70,98h1M73,98h1M74,98h1M75,98h1M77,98h1M78,98h1M80,98h1M81,98h1M87,98h1M88,98h1M89,98h1M90,98h1M91,98h1M93,98h1M94,98h1M96,98h1M98,98h1M99,98h1M100,98h1M0,99h1M6,99h1M10,99h1M11,99h1M15,99h1M16,99h1M17,99h1M19,99h1M20,99h1M21,99h1M23,99h1M26,99h1M30,99h1M31,99h1M35,99h1M36,99h1M38,99h1M39,99h1M40,99h1M42,99h1M43,99h1M44,99h1M46,99h1M48,99h1M49,99h1M52,99h1M54,99h1M58,99h1M60,99h1M61,99h1M64,99h1M66,99h1M69,99h1M70,99h1M72,99h1M75,99h1M80,99h1M81,99h1M83,99h1M88,99h1M89,99h1M93,99h1M94,99h1M95,99h1M97,99h1M98,99h1M99,99h1M0,100h1M1,100h1M2,100h1M3,100h1M4,100h1M5,100h1M6,100h1M10,100h1M11,100h1M13,100h1M15,100h1M16,100h1M17,100h1M20,100h1M23,100h1M29,100h1M33,100h1M34,100h1M35,100h1M38,100h1M41,100h1M43,100h1M44,100h1M47,100h1M48,100h1M49,100h1M51,100h1M55,100h1M57,100h1M61,100h1M62,100h1M63,100h1M64,100h1M66,100h1M67,100h1M68,100h1M70,100h1M72,100h1M74,100h1M75,100h1M76,100h1M78,100h1M79,100h1M80,100h1M86,100h1M88,100h1M89,100h1M90,100h1M92,100h1M93,100h1M95,100h1M97,100h1"/>
	</g>
</svg>
