<?xml version="1.0" encoding="UTF-8" standalone="yes"?>
<!-- Created with qrencode 4.1.1 (https://fukuchi.org/works/qrencode/index.html) -->
<svg width="9.42cm" height="9.42cm" viewBox="0 0 89 89" preserveAspectRatio="none" version="1.1" xmlns="http://www.w3.org/2000/svg">
	<g id="QRcode">
		<rect x="0" y="0" width="89" height="89" fill="#ffffff"/>
		<path style="stroke:#000000" transform="translate(4,4.5)" d="M0,0h1M1,0h1M2,0h1M3,0h1M4,0h1M5,0h1M6,0h1M8,0h1M11,0h1M13,0h1M15,0h1M16,0h1M19,0h1M21,0h1M23,0h1M24,0h1M26,0h1M27,0h1M28,0h1M29,0h1M30,0h1M32,0h1M33,0h1M34,0h1M35,0h1M36,0h1M37,0h1M38,0h1M41,0h1M42,0h1M44,0h1M46,0h1M49,0h1M52,0h1M53,0h1M54,0h1M55,0h1M57,0h1M59,0h1M63,0h1M66,0h1M68,0h1M74,0h1M75,0h1M76,0h1M77,0h1M78,0h1M79,0h1M80,0h1M0,1h1M6,1h1M8,1h1M11,1h1M12,1h1M13,1h1M15,1h1M16,1h1M21,1h1M23,1h1M24,1h1M26,1h1M28,1h1M29,1h1M30,1h1M31,1h1M33,1h1M34,1h1M39,1h1M40,1h1M47,1h1M48,1h1M49,1h1M50,1h1M51,1h1M52,1h1M53,1h1M57,1h1M59,1h1M60,1h1M63,1h1M67,1h1M70,1h1M71,1h1M72,1h1M74,1h1M80,1h1M0,2h1M2,2h1M3,2h1M4,2h1M6,2h1M8,2h1M11,2h1M12,2h1M13,2h1M14,2h1M15,2h1M16,2h1M17,2h1M18,2h1M19,2h1M20,2h1M23,2h1M24,2h1M30,2h1M33,2h1M35,2h1M38,2h1M41,2h1M43,2h1M47,2h1M49,2h1M50,2h1M52,2h1M54,2h1M56,2h1M57,2h1M58,2h1M63,2h1M65,2h1M68,2h1M69,2h1M70,2h1M72,2h1M74,2h1M76,2h1M77,2h1M78,2h1M80,2h1M0,3h1M2,3h1M3,3h1M4,3h1M6,3h1M9,3h1M10,3h1M11,3h1M13,3h1M14,3h1M16,3h1M17,3h1M18,3h1M20,3h1M26,3h1M28,3h1M30,3h1M31,3h1M35,3h1M38,3h1M40,3h1M42,3h1M43,3h1M46,3h1M47,3h1M48,3h1M49,3h1M51,3h1M53,3h1M55,3h1M57,3h1M59,3h1M60,3h1M66,3h1M67,3h1M69,3h1M70,3h1M72,3h1M74,3h1M76,3h1M77,3h1M78,3h1M80,3h1M0,4h1M2,4h1M3,4h1M4,4h1M6,4h1M9,4h1M10,4h1M11,4h1M13,4h1M14,4h1M15,4h1M16,4h1M20,4h1M22,4h1M24,4h1M25,4h1M26,4h1M27,4h1M28,4h1M32,4h1M33,4h1M39,4h1M45,4h1M46,4h1M48,4h1M49,4h1M50,4h1M51,4h1M52,4h1M53,4h1M54,4h1M55,4h1M56,4h1M59,4h1M60,4h1M61,4h1M63,4h1M64,4h1M65,4h1M66,4h1M67,4h1M69,4h1M74,4h1M76,4h1M77,4h1M78,4h1M80,4h1M0,5h1M6,5h1M8,5h1M9,5h1M16,5h1M18,5h1M19,5h1M20,5h1M23,5h1M24,5h1M28,5h1M31,5h1M35,5h1M36,5h1M37,5h1M38,5h1M39,5h1M42,5h1M43,5h1M45,5h1M46,5h1M48,5h1M52,5h1M54,5h1M55,5h1M57,5h1M61,5h1M63,5h1M65,5h1M71,5h1M74,5h1M80,5h1M0,6h1M1,6h1M2,6h1M3,6h1M4,6h1M5,6h1M6,6h1M8,6h1M10,6h1M12,6h1M14,6h1M16,6h1M18,6h1M20,6h1M22,6h1M24,6h1M26,6h1M28,6h1M30,6h1M32,6h1M34,6h1M36,6h1M38,6h1M40,6h1M42,6h1M44,6h1M46,6h1M48,6h1M50,6h1M52,6h1M54,6h1M56,6h1M58,6h1M60,6h1M62,6h1M64,6h1M66,6h1M68,6h1M70,6h1M72,6h1M74,6h1M75,6h1M76,6h1M77,6h1M78,6h1M79,6h1M80,6h1M8,7h1M11,7h1M12,7h1M13,7h1M14,7h1M15,7h1M16,7h1M23,7h1M24,7h1M28,7h1M29,7h1M33,7h1M34,7h1M35,7h1M38,7h1M39,7h1M41,7h1M42,7h1M45,7h1M47,7h1M48,7h1M52,7h1M56,7h1M59,7h1M60,7h1M63,7h1M65,7h1M66,7h1M67,7h1M68,7h1M69,7h1M70,7h1M71,7h1M2,8h1M3,8h1M4,8h1M6,8h1M8,8h1M10,8h1M11,8h1M12,8h1M13,8h1M15,8h1M17,8h1M19,8h1M20,8h1M23,8h1M24,8h1M25,8h1M26,8h1M27,8h1M28,8h1M30,8h1M31,8h1M32,8h1M33,8h1M34,8h1M35,8h1M38,8h1M40,8h1M43,8h1M44,8h1M47,8h1M48,8h1M49,8h1M50,8h1M51,8h1M52,8h1M53,8h1M54,8h1M55,8h1M59,8h1M61,8h1M62,8h1M65,8h1M66,8h1M67,8h1M70,8h1M71,8h1M73,8h1M74,8h1M75,8h1M78,8h1M79,8h1M80,8h1M0,9h1M1,9h1M9,9h1M11,9h1M12,9h1M13,9h1M16,9h1M19,9h1M21,9h1M23,9h1M24,9h1M26,9h1M31,9h1M32,9h1M33,9h1M36,9h1M39,9h1M40,9h1M42,9h1M47,9h1M48,9h1M50,9h1M52,9h1M54,9h1M55,9h1M59,9h1M60,9h1M61,9h1M64,9h1M65,9h1M66,9h1M67,9h1M69,9h1M70,9h1M74,9h1M77,9h1M78,9h1M80,9h1M2,10h1M3,10h1M4,10h1M6,10h1M9,10h1M10,10h1M15,10h1M17,10h1M18,10h1M20,10h1M22,10h1M23,10h1M27,10h1M29,10h1M31,10h1M32,10h1M34,10h1M38,10h1M40,10h1M42,10h1M44,10h1M45,10h1M46,10h1M48,10h1M50,10h1M51,10h1M54,10h1M57,10h1M58,10h1M62,10h1M64,10h1M66,10h1M68,10h1M70,10h1M71,10h1M72,10h1M73,10h1M75,10h1M76,10h1M79,10h1M5,11h1M7,11h1M8,11h1M12,11h1M15,11h1M19,11h1M20,11h1M21,11h1M24,11h1M25,11h1M29,11h1M33,11h1M34,11h1M35,11h1M39,11h1M43,11h1M48,11h1M49,11h1M51,11h1M52,11h1M54,11h1M55,11h1M57,11h1M60,11h1M63,11h1M64,11h1M66,11h1M67,11h1M69,11h1M75,11h1M80,11h1M1,12h1M5,12h1M6,12h1M8,12h1M10,12h1M11,12h1M12,12h1M13,12h1M15,12h1M18,12h1M19,12h1M21,12h1M25,12h1M26,12h1M29,12h1M30,12h1M32,12h1M36,12h1M37,12h1M41,12h1M45,12h1M46,12h1M48,12h1M49,12h1M51,12h1M52,12h1M55,12h1M57,12h1M58,12h1M60,12h1M61,12h1M62,12h1M70,12h1M71,12h1M73,12h1M75,12h1M77,12h1M78,12h1M79,12h1M2,13h1M5,13h1M7,13h1M8,13h1M9,13h1M11,13h1M12,13h1M13,13h1M14,13h1M15,13h1M17,13h1M18,13h1M20,13h1M21,13h1M23,13h1M24,13h1M25,13h1M26,13h1M27,13h1M29,13h1M33,13h1M35,13h1M37,13h1M38,13h1M44,13h1M45,13h1M46,13h1M48,13h1M51,13h1M56,13h1M59,13h1M63,13h1M64,13h1M66,13h1M68,13h1M72,13h1M73,13h1M74,13h1M77,13h1M78,13h1M80,13h1M1,14h1M3,14h1M4,14h1M5,14h1M6,14h1M7,14h1M8,14h1M10,14h1M17,14h1M21,14h1M22,14h1M23,14h1M24,14h1M26,14h1M27,14h1M28,14h1M29,14h1M31,14h1M32,14h1M33,14h1M34,14h1M35,14h1M37,14h1M38,14h1M39,14h1M41,14h1M45,14h1M54,14h1M60,14h1M70,14h1M72,14h1M76,14h1M79,14h1M0,15h1M2,15h1M3,15h1M4,15h1M9,15h1M10,15h1M11,15h1M14,15h1M15,15h1M18,15h1M19,15h1M26,15h1M27,15h1M29,15h1M30,15h1M31,15h1M34,15h1M37,15h1M39,15h1M40,15h1M42,15h1M44,15h1M48,15h1M49,15h1M51,15h1M52,15h1M54,15h1M56,15h1M59,15h1M62,15h1M64,15h1M65,15h1M67,15h1M68,15h1M69,15h1M71,15h1M72,15h1M74,15h1M78,15h1M79,15h1M0,16h1M1,16h1M3,16h1M5,16h1M6,16h1M15,16h1M16,16h1M20,16h1M21,16h1M27,16h1M29,16h1M30,16h1M31,16h1M34,16h1M35,16h1M40,16h1M41,16h1M42,16h1M46,16h1M47,16h1M50,16h1M51,16h1M53,16h1M55,16h1M57,16h1M58,16h1M59,16h1M60,16h1M62,16h1M65,16h1M71,16h1M77,16h1M0,17h1M1,17h1M4,17h1M7,17h1M8,17h1M10,17h1M11,17h1M12,17h1M15,17h1M17,17h1M18,17h1M19,17h1M23,17h1M25,17h1M26,17h1M28,17h1M30,17h1M31,17h1M32,17h1M36,17h1M37,17h1M44,17h1M46,17h1M47,17h1M49,17h1M54,17h1M55,17h1M59,17h1M60,17h1M61,17h1M64,17h1M66,17h1M68,17h1M71,17h1M72,17h1M74,17h1M78,17h1M79,17h1M2,18h1M3,18h1M4,18h1M6,18h1M7,18h1M8,18h1M10,18h1M11,18h1M13,18h1M14,18h1M15,18h1M17,18h1M21,18h1M22,18h1M23,18h1M27,18h1M29,18h1M31,18h1M34,18h1M36,18h1M43,18h1M49,18h1M50,18h1M51,18h1M56,18h1M57,18h1M58,18h1M62,18h1M68,18h1M70,18h1M71,18h1M72,18h1M73,18h1M74,18h1M1,19h1M3,19h1M5,19h1M8,19h1M10,19h1M12,19h1M16,19h1M18,19h1M19,19h1M20,19h1M24,19h1M25,19h1M29,19h1M30,19h1M32,19h1M33,19h1M35,19h1M36,19h1M38,19h1M40,19h1M41,19h1M42,19h1M46,19h1M47,19h1M49,19h1M50,19h1M52,19h1M58,19h1M59,19h1M60,19h1M62,19h1M63,19h1M64,19h1M68,19h1M69,19h1M71,19h1M74,19h1M75,19h1M76,19h1M77,19h1M80,19h1M2,20h1M3,20h1M6,20h1M7,20h1M8,20h1M11,20h1M13,20h1M15,20h1M24,20h1M25,20h1M35,20h1M36,20h1M38,20h1M39,20h1M41,20h1M44,20h1M46,20h1M47,20h1M48,20h1M49,20h1M50,20h1M52,20h1M53,20h1M54,20h1M55,20h1M57,20h1M59,20h1M61,20h1M62,20h1M65,20h1M66,20h1M67,20h1M75,20h1M76,20h1M79,20h1M80,20h1M0,21h1M2,21h1M5,21h1M7,21h1M11,21h1M12,21h1M14,21h1M15,21h1M17,21h1M19,21h1M20,21h1M21,21h1M22,21h1M23,21h1M26,21h1M27,21h1M28,21h1M30,21h1M36,21h1M41,21h1M43,21h1M45,21h1M49,21h1M50,21h1M51,21h1M53,21h1M54,21h1M56,21h1M57,21h1M59,21h1M60,21h1M61,21h1M65,21h1M66,21h1M68,21h1M71,21h1M72,21h1M74,21h1M75,21h1M76,21h1M77,21h1M78,21h1M79,21h1M80,21h1M0,22h1M1,22h1M2,22h1M6,22h1M8,22h1M9,22h1M10,22h1M11,22h1M12,22h1M13,22h1M14,22h1M15,22h1M19,22h1M21,22h1M22,22h1M23,22h1M24,22h1M26,22h1M27,22h1M31,22h1M33,22h1M34,22h1M36,22h1M37,22h1M39,22h1M40,22h1M41,22h1M45,22h1M46,22h1M47,22h1M49,22h1M50,22h1M52,22h1M53,22h1M54,22h1M56,22h1M57,22h1M58,22h1M60,22h1M64,22h1M70,22h1M71,22h1M79,22h1M0,23h1M4,23h1M5,23h1M7,23h1M9,23h1M10,23h1M16,23h1M17,23h1M18,23h1M20,23h1M21,23h1M23,23h1M28,23h1M30,23h1M32,23h1M33,23h1M35,23h1M36,23h1M37,23h1M38,23h1M39,23h1M43,23h1M44,23h1M45,23h1M47,23h1M49,23h1M53,23h1M54,23h1M56,23h1M57,23h1M58,23h1M59,23h1M63,23h1M68,23h1M69,23h1M72,23h1M76,23h1M78,23h1M0,24h1M1,24h1M3,24h1M4,24h1M5,24h1M6,24h1M7,24h1M8,24h1M9,24h1M10,24h1M11,24h1M12,24h1M13,24h1M16,24h1M17,24h1M18,24h1M19,24h1M20,24h1M21,24h1M22,24h1M23,24h1M24,24h1M25,24h1M26,24h1M27,24h1M28,24h1M30,24h1M33,24h1M34,24h1M35,24h1M39,24h1M41,24h1M42,24h1M43,24h1M44,24h1M45,24h1M46,24h1M48,24h1M49,24h1M50,24h1M51,24h1M52,24h1M53,24h1M55,24h1M59,24h1M60,24h1M62,24h1M65,24h1M71,24h1M72,24h1M73,24h1M74,24h1M75,24h1M76,24h1M77,24h1M78,24h1M79,24h1M0,25h1M3,25h1M4,25h1M8,25h1M9,25h1M10,25h1M11,25h1M14,25h1M15,25h1M19,25h1M20,25h1M22,25h1M23,25h1M24,25h1M28,25h1M33,25h1M34,25h1M35,25h1M37,25h1M42,25h1M44,25h1M45,25h1M47,25h1M48,25h1M52,25h1M53,25h1M54,25h1M55,25h1M56,25h1M65,25h1M66,25h1M67,25h1M68,25h1M71,25h1M72,25h1M76,25h1M78,25h1M79,25h1M0,26h1M1,26h1M4,26h1M6,26h1M8,26h1M11,26h1M12,26h1M14,26h1M18,26h1M19,26h1M20,26h1M21,26h1M23,26h1M24,26h1M26,26h1M28,26h1M30,26h1M31,26h1M36,26h1M37,26h1M39,26h1M44,26h1M47,26h1M48,26h1M50,26h1M52,26h1M57,26h1M58,26h1M62,26h1M63,26h1M70,26h1M71,26h1M72,26h1M74,26h1M76,26h1M79,26h1M80,26h1M2,27h1M3,27h1M4,27h1M8,27h1M9,27h1M12,27h1M13,27h1M18,27h1M20,27h1M21,27h1M22,27h1M24,27h1M28,27h1M30,27h1M31,27h1M33,27h1M36,27h1M37,27h1M38,27h1M39,27h1M41,27h1M43,27h1M44,27h1M47,27h1M48,27h1M52,27h1M53,27h1M56,27h1M60,27h1M62,27h1M64,27h1M66,27h1M68,27h1M69,27h1M72,27h1M76,27h1M77,27h1M80,27h1M0,28h1M2,28h1M4,28h1M5,28h1M6,28h1M7,28h1M8,28h1M10,28h1M11,28h1M14,28h1M15,28h1M16,28h1M21,28h1M22,28h1M23,28h1M24,28h1M25,28h1M26,28h1M27,28h1M28,28h1M29,28h1M30,28h1M31,28h1M32,28h1M33,28h1M36,28h1M37,28h1M38,28h1M40,28h1M42,28h1M45,28h1M46,28h1M48,28h1M49,28h1M50,28h1M51,28h1M52,28h1M53,28h1M55,28h1M58,28h1M59,28h1M60,28h1M61,28h1M62,28h1M65,28h1M70,28h1M72,28h1M73,28h1M74,28h1M75,28h1M76,28h1M1,29h1M3,29h1M7,29h1M8,29h1M10,29h1M17,29h1M18,29h1M19,29h1M20,29h1M24,29h1M25,29h1M26,29h1M30,29h1M31,29h1M33,29h1M35,29h1M38,29h1M41,29h1M42,29h1M45,29h1M47,29h1M48,29h1M49,29h1M51,29h1M53,29h1M54,29h1M56,29h1M61,29h1M65,29h1M66,29h1M69,29h1M72,29h1M75,29h1M76,29h1M78,29h1M79,29h1M0,30h1M1,30h1M2,30h1M6,30h1M7,30h1M8,30h1M10,30h1M15,30h1M16,30h1M22,30h1M23,30h1M24,30h1M27,30h1M30,30h1M31,30h1M35,30h1M38,30h1M41,30h1M42,30h1M43,30h1M44,30h1M45,30h1M48,30h1M49,30h1M50,30h1M51,30h1M55,30h1M56,30h1M57,30h1M58,30h1M60,30h1M62,30h1M63,30h1M66,30h1M68,30h1M74,30h1M75,30h1M77,30h1M79,30h1M80,30h1M2,31h1M4,31h1M9,31h1M13,31h1M14,31h1M16,31h1M18,31h1M22,31h1M24,31h1M26,31h1M28,31h1M30,31h1M31,31h1M32,31h1M33,31h1M34,31h1M35,31h1M38,31h1M39,31h1M40,31h1M42,31h1M43,31h1M49,31h1M50,31h1M51,31h1M53,31h1M54,31h1M57,31h1M59,31h1M60,31h1M61,31h1M63,31h1M66,31h1M67,31h1M68,31h1M69,31h1M70,31h1M71,31h1M73,31h1M74,31h1M77,31h1M0,32h1M3,32h1M6,32h1M7,32h1M8,32h1M11,32h1M12,32h1M13,32h1M15,32h1M17,32h1M19,32h1M20,32h1M23,32h1M25,32h1M30,32h1M33,32h1M34,32h1M35,32h1M37,32h1M43,32h1M44,32h1M45,32h1M47,32h1M49,32h1M52,32h1M54,32h1M55,32h1M59,32h1M60,32h1M65,32h1M69,32h1M70,32h1M72,32h1M74,32h1M76,32h1M77,32h1M78,32h1M79,32h1M1,33h1M2,33h1M4,33h1M8,33h1M10,33h1M11,33h1M13,33h1M15,33h1M19,33h1M20,33h1M21,33h1M23,33h1M24,33h1M25,33h1M26,33h1M29,33h1M31,33h1M33,33h1M34,33h1M41,33h1M42,33h1M43,33h1M45,33h1M49,33h1M51,33h1M52,33h1M54,33h1M57,33h1M60,33h1M63,33h1M64,33h1M67,33h1M68,33h1M69,33h1M70,33h1M72,33h1M73,33h1M75,33h1M76,33h1M78,33h1M79,33h1M2,34h1M6,34h1M7,34h1M9,34h1M10,34h1M13,34h1M14,34h1M16,34h1M18,34h1M23,34h1M25,34h1M26,34h1M28,34h1M32,34h1M34,34h1M35,34h1M36,34h1M40,34h1M41,34h1M45,34h1M46,34h1M47,34h1M49,34h1M52,34h1M53,34h1M55,34h1M57,34h1M60,34h1M64,34h1M67,34h1M71,34h1M72,34h1M74,34h1M79,34h1M80,34h1M0,35h1M2,35h1M3,35h1M5,35h1M7,35h1M8,35h1M9,35h1M10,35h1M11,35h1M14,35h1M16,35h1M18,35h1M19,35h1M22,35h1M23,35h1M24,35h1M28,35h1M29,35h1M34,35h1M35,35h1M37,35h1M43,35h1M44,35h1M46,35h1M47,35h1M48,35h1M51,35h1M55,35h1M57,35h1M60,35h1M63,35h1M64,35h1M66,35h1M72,35h1M73,35h1M74,35h1M75,35h1M76,35h1M78,35h1M80,35h1M0,36h1M2,36h1M3,36h1M6,36h1M10,36h1M11,36h1M12,36h1M16,36h1M18,36h1M19,36h1M21,36h1M24,36h1M26,36h1M27,36h1M31,36h1M33,36h1M34,36h1M40,36h1M41,36h1M42,36h1M43,36h1M44,36h1M47,36h1M49,36h1M51,36h1M53,36h1M56,36h1M57,36h1M58,36h1M60,36h1M62,36h1M63,36h1M66,36h1M67,36h1M70,36h1M72,36h1M73,36h1M74,36h1M76,36h1M78,36h1M79,36h1M2,37h1M3,37h1M4,37h1M7,37h1M12,37h1M15,37h1M16,37h1M17,37h1M19,37h1M20,37h1M21,37h1M22,37h1M23,37h1M25,37h1M26,37h1M27,37h1M31,37h1M32,37h1M34,37h1M36,37h1M37,37h1M38,37h1M40,37h1M41,37h1M44,37h1M45,37h1M47,37h1M48,37h1M49,37h1M50,37h1M53,37h1M54,37h1M55,37h1M56,37h1M61,37h1M64,37h1M66,37h1M68,37h1M71,37h1M72,37h1M73,37h1M75,37h1M79,37h1M1,38h1M4,38h1M6,38h1M7,38h1M8,38h1M9,38h1M12,38h1M13,38h1M14,38h1M15,38h1M16,38h1M18,38h1M19,38h1M21,38h1M22,38h1M24,38h1M25,38h1M26,38h1M30,38h1M31,38h1M34,38h1M35,38h1M36,38h1M37,38h1M38,38h1M42,38h1M43,38h1M45,38h1M46,38h1M47,38h1M56,38h1M58,38h1M62,38h1M63,38h1M66,38h1M67,38h1M69,38h1M70,38h1M71,38h1M72,38h1M74,38h1M75,38h1M76,38h1M78,38h1M79,38h1M80,38h1M0,39h1M1,39h1M3,39h1M4,39h1M9,39h1M10,39h1M12,39h1M16,39h1M19,39h1M20,39h1M22,39h1M23,39h1M25,39h1M26,39h1M27,39h1M28,39h1M30,39h1M31,39h1M33,39h1M34,39h1M35,39h1M36,39h1M40,39h1M41,39h1M46,39h1M47,39h1M49,39h1M50,39h1M51,39h1M52,39h1M53,39h1M54,39h1M57,39h1M61,39h1M63,39h1M64,39h1M66,39h1M68,39h1M69,39h1M71,39h1M75,39h1M80,39h1M1,40h1M2,40h1M3,40h1M5,40h1M6,40h1M7,40h1M9,40h1M10,40h1M11,40h1M12,40h1M16,40h1M18,40h1M21,40h1M25,40h1M26,40h1M28,40h1M30,40h1M35,40h1M36,40h1M37,40h1M38,40h1M40,40h1M41,40h1M42,40h1M44,40h1M49,40h1M50,40h1M54,40h1M55,40h1M56,40h1M59,40h1M60,40h1M63,40h1M64,40h1M65,40h1M67,40h1M69,40h1M70,40h1M76,40h1M78,40h1M3,41h1M9,41h1M11,41h1M15,41h1M16,41h1M17,41h1M19,41h1M22,41h1M27,41h1M29,41h1M31,41h1M33,41h1M36,41h1M41,41h1M42,41h1M43,41h1M45,41h1M47,41h1M49,41h1M50,41h1M51,41h1M53,41h1M54,41h1M56,41h1M58,41h1M60,41h1M63,41h1M64,41h1M67,41h1M71,41h1M72,41h1M73,41h1M75,41h1M77,41h1M79,41h1M1,42h1M2,42h1M3,42h1M4,42h1M5,42h1M6,42h1M11,42h1M13,42h1M17,42h1M18,42h1M19,42h1M20,42h1M21,42h1M24,42h1M25,42h1M26,42h1M28,42h1M29,42h1M31,42h1M36,42h1M44,42h1M45,42h1M46,42h1M49,42h1M50,42h1M53,42h1M54,42h1M60,42h1M61,42h1M62,42h1M63,42h1M64,42h1M69,42h1M72,42h1M78,42h1M80,42h1M0,43h1M3,43h1M8,43h1M10,43h1M11,43h1M15,43h1M18,43h1M19,43h1M22,43h1M25,43h1M27,43h1M28,43h1M30,43h1M31,43h1M32,43h1M33,43h1M34,43h1M35,43h1M37,43h1M38,43h1M39,43h1M41,43h1M42,43h1M44,43h1M45,43h1M46,43h1M47,43h1M48,43h1M49,43h1M51,43h1M53,43h1M56,43h1M57,43h1M59,43h1M61,43h1M62,43h1M68,43h1M72,43h1M74,43h1M75,43h1M77,43h1M0,44h1M1,44h1M2,44h1M4,44h1M6,44h1M7,44h1M9,44h1M10,44h1M11,44h1M14,44h1M18,44h1M22,44h1M24,44h1M27,44h1M28,44h1M34,44h1M36,44h1M42,44h1M43,44h1M45,44h1M46,44h1M48,44h1M53,44h1M55,44h1M59,44h1M60,44h1M63,44h1M65,44h1M67,44h1M72,44h1M74,44h1M76,44h1M78,44h1M80,44h1M1,45h1M5,45h1M7,45h1M10,45h1M12,45h1M19,45h1M20,45h1M25,45h1M27,45h1M28,45h1M32,45h1M36,45h1M37,45h1M38,45h1M39,45h1M40,45h1M42,45h1M46,45h1M53,45h1M54,45h1M55,45h1M58,45h1M59,45h1M60,45h1M61,45h1M64,45h1M65,45h1M66,45h1M68,45h1M74,45h1M75,45h1M76,45h1M78,45h1M80,45h1M0,46h1M1,46h1M2,46h1M3,46h1M5,46h1M6,46h1M7,46h1M10,46h1M11,46h1M13,46h1M14,46h1M16,46h1M21,46h1M23,46h1M24,46h1M25,46h1M27,46h1M28,46h1M29,46h1M30,46h1M32,46h1M33,46h1M36,46h1M40,46h1M41,46h1M42,46h1M43,46h1M45,46h1M46,46h1M47,46h1M49,46h1M51,46h1M56,46h1M59,46h1M61,46h1M62,46h1M63,46h1M66,46h1M68,46h1M69,46h1M70,46h1M71,46h1M72,46h1M74,46h1M75,46h1M76,46h1M78,46h1M79,46h1M0,47h1M3,47h1M4,47h1M5,47h1M7,47h1M8,47h1M11,47h1M12,47h1M13,47h1M17,47h1M19,47h1M20,47h1M21,47h1M22,47h1M26,47h1M27,47h1M28,47h1M29,47h1M31,47h1M32,47h1M33,47h1M34,47h1M35,47h1M38,47h1M39,47h1M40,47h1M41,47h1M42,47h1M43,47h1M44,47h1M45,47h1M47,47h1M50,47h1M51,47h1M52,47h1M56,47h1M57,47h1M58,47h1M61,47h1M68,47h1M69,47h1M73,47h1M74,47h1M76,47h1M77,47h1M80,47h1M1,48h1M2,48h1M3,48h1M4,48h1M5,48h1M6,48h1M7,48h1M8,48h1M10,48h1M12,48h1M14,48h1M17,48h1M18,48h1M20,48h1M22,48h1M24,48h1M25,48h1M26,48h1M27,48h1M28,48h1M30,48h1M33,48h1M35,48h1M36,48h1M38,48h1M40,48h1M41,48h1M43,48h1M44,48h1M46,48h1M47,48h1M48,48h1M49,48h1M50,48h1M51,48h1M52,48h1M54,48h1M55,48h1M60,48h1M61,48h1M62,48h1M64,48h1M70,48h1M72,48h1M73,48h1M74,48h1M75,48h1M76,48h1M79,48h1M0,49h1M1,49h1M4,49h1M8,49h1M10,49h1M11,49h1M12,49h1M15,49h1M18,49h1M20,49h1M21,49h1M22,49h1M23,49h1M24,49h1M28,49h1M34,49h1M35,49h1M38,49h1M39,49h1M40,49h1M41,49h1M44,49h1M45,49h1M46,49h1M47,49h1M48,49h1M52,49h1M56,49h1M57,49h1M59,49h1M61,49h1M65,49h1M66,49h1M68,49h1M69,49h1M71,49h1M72,49h1M76,49h1M78,49h1M79,49h1M0,50h1M3,50h1M4,50h1M6,50h1M8,50h1M9,50h1M11,50h1M15,50h1M16,50h1M17,50h1M20,50h1M24,50h1M26,50h1M28,50h1M29,50h1M30,50h1M31,50h1M32,50h1M33,50h1M35,50h1M37,50h1M38,50h1M39,50h1M40,50h1M42,50h1M43,50h1M46,50h1M48,50h1M50,50h1M52,50h1M54,50h1M56,50h1M57,50h1M59,50h1M61,50h1M62,50h1M63,50h1M64,50h1M65,50h1M70,50h1M71,50h1M72,50h1M74,50h1M76,50h1M78,50h1M79,50h1M3,51h1M4,51h1M8,51h1M11,51h1M12,51h1M13,51h1M16,51h1M18,51h1M19,51h1M20,51h1M21,51h1M23,51h1M24,51h1M28,51h1M29,51h1M31,51h1M32,51h1M33,51h1M34,51h1M36,51h1M39,51h1M40,51h1M41,51h1M43,51h1M45,51h1M48,51h1M52,51h1M53,51h1M56,51h1M57,51h1M60,51h1M61,51h1M66,51h1M68,51h1M69,51h1M70,51h1M72,51h1M76,51h1M77,51h1M3,52h1M4,52h1M5,52h1M6,52h1M7,52h1M8,52h1M11,52h1M12,52h1M13,52h1M16,52h1M18,52h1M19,52h1M20,52h1M21,52h1M22,52h1M23,52h1M24,52h1M25,52h1M26,52h1M27,52h1M28,52h1M32,52h1M33,52h1M34,52h1M36,52h1M37,52h1M39,52h1M40,52h1M43,52h1M45,52h1M46,52h1M47,52h1M48,52h1M49,52h1M50,52h1M51,52h1M52,52h1M54,52h1M55,52h1M58,52h1M60,52h1M62,52h1M63,52h1M65,52h1M67,52h1M69,52h1M71,52h1M72,52h1M73,52h1M74,52h1M75,52h1M76,52h1M79,52h1M0,53h1M2,53h1M3,53h1M4,53h1M5,53h1M9,53h1M11,53h1M12,53h1M15,53h1M16,53h1M17,53h1M21,53h1M22,53h1M23,53h1M24,53h1M27,53h1M28,53h1M33,53h1M34,53h1M35,53h1M36,53h1M37,53h1M38,53h1M40,53h1M43,53h1M46,53h1M48,53h1M54,53h1M56,53h1M59,53h1M60,53h1M61,53h1M64,53h1M65,53h1M66,53h1M67,53h1M71,53h1M72,53h1M74,53h1M78,53h1M79,53h1M1,54h1M2,54h1M5,54h1M6,54h1M8,54h1M9,54h1M10,54h1M15,54h1M16,54h1M23,54h1M25,54h1M26,54h1M28,54h1M30,54h1M32,54h1M34,54h1M35,54h1M38,54h1M41,54h1M42,54h1M43,54h1M44,54h1M47,54h1M48,54h1M49,54h1M51,54h1M52,54h1M56,54h1M58,54h1M59,54h1M62,54h1M63,54h1M64,54h1M65,54h1M68,54h1M70,54h1M72,54h1M75,54h1M76,54h1M78,54h1M79,54h1M80,54h1M1,55h1M3,55h1M9,55h1M11,55h1M15,55h1M16,55h1M17,55h1M18,55h1M20,55h1M22,55h1M23,55h1M25,55h1M27,55h1M28,55h1M30,55h1M32,55h1M38,55h1M39,55h1M40,55h1M41,55h1M42,55h1M45,55h1M48,55h1M52,55h1M54,55h1M55,55h1M57,55h1M63,55h1M69,55h1M74,55h1M75,55h1M76,55h1M77,55h1M0,56h1M5,56h1M6,56h1M8,56h1M11,56h1M14,56h1M15,56h1M16,56h1M20,56h1M22,56h1M25,56h1M28,56h1M29,56h1M30,56h1M31,56h1M33,56h1M34,56h1M37,56h1M38,56h1M39,56h1M40,56h1M41,56h1M44,56h1M46,56h1M47,56h1M50,56h1M57,56h1M58,56h1M59,56h1M60,56h1M61,56h1M62,56h1M63,56h1M66,56h1M67,56h1M69,56h1M70,56h1M72,56h1M74,56h1M76,56h1M78,56h1M79,56h1M0,57h1M1,57h1M2,57h1M4,57h1M10,57h1M11,57h1M13,57h1M14,57h1M18,57h1M20,57h1M23,57h1M25,57h1M29,57h1M31,57h1M32,57h1M33,57h1M35,57h1M38,57h1M39,57h1M41,57h1M43,57h1M45,57h1M47,57h1M48,57h1M49,57h1M52,57h1M54,57h1M56,57h1M57,57h1M58,57h1M61,57h1M64,57h1M65,57h1M66,57h1M67,57h1M75,57h1M77,57h1M78,57h1M79,57h1M80,57h1M0,58h1M1,58h1M2,58h1M3,58h1M4,58h1M5,58h1M6,58h1M8,58h1M9,58h1M10,58h1M12,58h1M14,58h1M16,58h1M17,58h1M18,58h1M20,58h1M21,58h1M22,58h1M27,58h1M29,58h1M32,58h1M33,58h1M36,58h1M40,58h1M44,58h1M45,58h1M46,58h1M48,58h1M49,58h1M51,58h1M52,58h1M53,58h1M57,58h1M58,58h1M60,58h1M62,58h1M63,58h1M64,58h1M65,58h1M66,58h1M67,58h1M69,58h1M70,58h1M72,58h1M74,58h1M75,58h1M78,58h1M1,59h1M3,59h1M4,59h1M8,59h1M9,59h1M10,59h1M14,59h1M17,59h1M21,59h1M23,59h1M25,59h1M27,59h1M28,59h1M30,59h1M31,59h1M32,59h1M36,59h1M40,59h1M41,59h1M43,59h1M45,59h1M46,59h1M47,59h1M49,59h1M54,59h1M56,59h1M57,59h1M61,59h1M62,59h1M63,59h1M64,59h1M66,59h1M67,59h1M68,59h1M69,59h1M70,59h1M75,59h1M80,59h1M1,60h1M2,60h1M4,60h1M5,60h1M6,60h1M14,60h1M15,60h1M16,60h1M18,60h1M21,60h1M23,60h1M26,60h1M27,60h1M30,60h1M31,60h1M32,60h1M33,60h1M35,60h1M37,60h1M39,60h1M40,60h1M45,60h1M46,60h1M51,60h1M54,60h1M58,60h1M60,60h1M63,60h1M65,60h1M67,60h1M69,60h1M70,60h1M73,60h1M74,60h1M75,60h1M76,60h1M78,60h1M79,60h1M2,61h1M3,61h1M5,61h1M8,61h1M10,61h1M11,61h1M13,61h1M14,61h1M17,61h1M19,61h1M22,61h1M23,61h1M25,61h1M29,61h1M30,61h1M35,61h1M37,61h1M39,61h1M40,61h1M41,61h1M43,61h1M44,61h1M47,61h1M51,61h1M52,61h1M56,61h1M57,61h1M58,61h1M59,61h1M60,61h1M64,61h1M66,61h1M68,61h1M71,61h1M72,61h1M74,61h1M77,61h1M78,61h1M79,61h1M80,61h1M1,62h1M5,62h1M6,62h1M8,62h1M10,62h1M16,62h1M18,62h1M21,62h1M22,62h1M23,62h1M27,62h1M28,62h1M29,62h1M31,62h1M33,62h1M38,62h1M39,62h1M41,62h1M42,62h1M43,62h1M44,62h1M45,62h1M52,62h1M54,62h1M56,62h1M57,62h1M59,62h1M63,62h1M65,62h1M66,62h1M67,62h1M73,62h1M74,62h1M76,62h1M78,62h1M0,63h1M3,63h1M9,63h1M11,63h1M13,63h1M16,63h1M19,63h1M20,63h1M21,63h1M24,63h1M26,63h1M27,63h1M29,63h1M30,63h1M35,63h1M36,63h1M37,63h1M39,63h1M41,63h1M45,63h1M49,63h1M50,63h1M53,63h1M54,63h1M55,63h1M56,63h1M57,63h1M62,63h1M63,63h1M64,63h1M74,63h1M79,63h1M0,64h1M1,64h1M2,64h1M3,64h1M5,64h1M6,64h1M11,64h1M13,64h1M19,64h1M22,64h1M23,64h1M26,64h1M27,64h1M28,64h1M29,64h1M31,64h1M33,64h1M35,64h1M36,64h1M37,64h1M40,64h1M41,64h1M43,64h1M45,64h1M49,64h1M56,64h1M57,64h1M58,64h1M59,64h1M60,64h1M63,64h1M64,64h1M66,64h1M73,64h1M74,64h1M76,64h1M78,64h1M79,64h1M1,65h1M3,65h1M5,65h1M8,65h1M10,65h1M12,65h1M13,65h1M15,65h1M18,65h1M19,65h1M20,65h1M23,65h1M24,65h1M25,65h1M28,65h1M33,65h1M34,65h1M37,65h1M38,65h1M39,65h1M40,65h1M43,65h1M47,65h1M48,65h1M54,65h1M60,65h1M63,65h1M64,65h1M65,65h1M72,65h1M75,65h1M77,65h1M78,65h1M79,65h1M80,65h1M0,66h1M1,66h1M2,66h1M3,66h1M4,66h1M5,66h1M6,66h1M10,66h1M11,66h1M12,66h1M13,66h1M18,66h1M19,66h1M23,66h1M24,66h1M25,66h1M26,66h1M27,66h1M28,66h1M30,66h1M31,66h1M32,66h1M33,66h1M34,66h1M36,66h1M39,66h1M40,66h1M41,66h1M42,66h1M44,66h1M46,66h1M52,66h1M53,66h1M54,66h1M56,66h1M60,66h1M68,66h1M70,66h1M72,66h1M74,66h1M77,66h1M79,66h1M80,66h1M1,67h1M7,67h1M9,67h1M13,67h1M14,67h1M15,67h1M16,67h1M18,67h1M19,67h1M20,67h1M22,67h1M27,67h1M28,67h1M29,67h1M31,67h1M32,67h1M33,67h1M36,67h1M37,67h1M40,67h1M41,67h1M42,67h1M43,67h1M45,67h1M46,67h1M47,67h1M49,67h1M51,67h1M53,67h1M54,67h1M62,67h1M65,67h1M66,67h1M68,67h1M69,67h1M70,67h1M71,67h1M74,67h1M77,67h1M80,67h1M0,68h1M1,68h1M2,68h1M4,68h1M6,68h1M7,68h1M8,68h1M10,68h1M11,68h1M22,68h1M23,68h1M24,68h1M25,68h1M27,68h1M29,68h1M31,68h1M33,68h1M34,68h1M37,68h1M39,68h1M40,68h1M41,68h1M43,68h1M45,68h1M48,68h1M50,68h1M52,68h1M53,68h1M56,68h1M59,68h1M60,68h1M62,68h1M65,68h1M70,68h1M73,68h1M74,68h1M75,68h1M77,68h1M79,68h1M0,69h1M3,69h1M4,69h1M5,69h1M7,69h1M10,69h1M11,69h1M13,69h1M17,69h1M19,69h1M20,69h1M22,69h1M25,69h1M28,69h1M31,69h1M37,69h1M41,69h1M42,69h1M43,69h1M44,69h1M45,69h1M49,69h1M50,69h1M53,69h1M59,69h1M61,69h1M65,69h1M66,69h1M67,69h1M68,69h1M70,69h1M72,69h1M75,69h1M76,69h1M77,69h1M80,69h1M1,70h1M2,70h1M3,70h1M6,70h1M8,70h1M10,70h1M11,70h1M12,70h1M13,70h1M15,70h1M19,70h1M22,70h1M28,70h1M29,70h1M30,70h1M34,70h1M37,70h1M38,70h1M40,70h1M42,70h1M44,70h1M45,70h1M47,70h1M48,70h1M50,70h1M51,70h1M52,70h1M57,70h1M58,70h1M60,70h1M61,70h1M63,70h1M64,70h1M68,70h1M69,70h1M71,70h1M72,70h1M73,70h1M74,70h1M75,70h1M76,70h1M77,70h1M78,70h1M80,70h1M1,71h1M5,71h1M8,71h1M16,71h1M17,71h1M18,71h1M19,71h1M21,71h1M22,71h1M26,71h1M27,71h1M32,71h1M33,71h1M34,71h1M37,71h1M39,71h1M42,71h1M43,71h1M45,71h1M47,71h1M49,71h1M50,71h1M52,71h1M53,71h1M54,71h1M56,71h1M58,71h1M62,71h1M63,71h1M64,71h1M66,71h1M67,71h1M69,71h1M71,71h1M79,71h1M80,71h1M1,72h1M2,72h1M3,72h1M6,72h1M9,72h1M10,72h1M12,72h1M13,72h1M15,72h1M17,72h1M19,72h1M20,72h1M21,72h1M24,72h1M25,72h1M26,72h1M27,72h1M28,72h1M29,72h1M33,72h1M34,72h1M35,72h1M36,72h1M38,72h1M40,72h1M41,72h1M43,72h1M44,72h1M48,72h1M49,72h1M50,72h1M51,72h1M52,72h1M54,72h1M55,72h1M57,72h1M59,72h1M60,72h1M63,72h1M65,72h1M66,72h1M68,72h1M70,72h1M72,72h1M73,72h1M74,72h1M75,72h1M76,72h1M77,72h1M8,73h1M9,73h1M10,73h1M12,73h1M13,73h1M14,73h1M15,73h1M17,73h1M23,73h1M24,73h1M28,73h1M29,73h1M31,73h1M32,73h1M33,73h1M35,73h1M38,73h1M39,73h1M40,73h1M41,73h1M43,73h1M44,73h1M47,73h1M48,73h1M52,73h1M53,73h1M54,73h1M55,73h1M56,73h1M61,73h1M65,73h1M66,73h1M68,73h1M72,73h1M76,73h1M77,73h1M78,73h1M0,74h1M1,74h1M2,74h1M3,74h1M4,74h1M5,74h1M6,74h1M11,74h1M12,74h1M15,74h1M16,74h1M20,74h1M21,74h1M22,74h1M23,74h1M24,74h1M26,74h1M28,74h1M31,74h1M33,74h1M35,74h1M37,74h1M38,74h1M42,74h1M45,74h1M46,74h1M47,74h1M48,74h1M50,74h1M52,74h1M54,74h1M56,74h1M57,74h1M58,74h1M60,74h1M61,74h1M63,74h1M64,74h1M66,74h1M69,74h1M71,74h1M72,74h1M74,74h1M76,74h1M0,75h1M6,75h1M11,75h1M13,75h1M14,75h1M15,75h1M16,75h1M17,75h1M19,75h1M22,75h1M23,75h1M24,75h1M28,75h1M29,75h1M30,75h1M31,75h1M32,75h1M33,75h1M35,75h1M36,75h1M39,75h1M40,75h1M42,75h1M44,75h1M48,75h1M52,75h1M53,75h1M54,75h1M59,75h1M60,75h1M63,75h1M64,75h1M65,75h1M69,75h1M70,75h1M71,75h1M72,75h1M76,75h1M77,75h1M80,75h1M0,76h1M2,76h1M3,76h1M4,76h1M6,76h1M8,76h1M9,76h1M10,76h1M12,76h1M14,76h1M15,76h1M17,76h1M21,76h1M22,76h1M24,76h1M25,76h1M26,76h1M27,76h1M28,76h1M29,76h1M33,76h1M34,76h1M35,76h1M37,76h1M38,76h1M40,76h1M42,76h1M43,76h1M44,76h1M45,76h1M48,76h1M49,76h1M50,76h1M51,76h1M52,76h1M54,76h1M61,76h1M62,76h1M63,76h1M72,76h1M73,76h1M74,76h1M75,76h1M76,76h1M79,76h1M0,77h1M2,77h1M3,77h1M4,77h1M6,77h1M8,77h1M9,77h1M10,77h1M17,77h1M18,77h1M20,77h1M21,77h1M23,77h1M24,77h1M25,77h1M27,77h1M31,77h1M33,77h1M35,77h1M37,77h1M38,77h1M41,77h1M43,77h1M44,77h1M47,77h1M50,77h1M55,77h1M56,77h1M59,77h1M61,77h1M63,77h1M64,77h1M65,77h1M66,77h1M67,77h1M70,77h1M72,77h1M74,77h1M76,77h1M77,77h1M78,77h1M0,78h1M2,78h1M3,78h1M4,78h1M6,78h1M8,78h1M9,78h1M11,78h1M12,78h1M15,78h1M16,78h1M18,78h1M19,78h1M20,78h1M22,78h1M23,78h1M24,78h1M25,78h1M26,78h1M28,78h1M29,78h1M30,78h1M32,78h1M34,78h1M35,78h1M36,78h1M38,78h1M41,78h1M42,78h1M43,78h1M45,78h1M46,78h1M47,78h1M49,78h1M50,78h1M53,78h1M55,78h1M56,78h1M60,78h1M75,78h1M0,79h1M6,79h1M10,79h1M14,79h1M18,79h1M19,79h1M20,79h1M21,79h1M24,79h1M33,79h1M34,79h1M38,79h1M44,79h1M45,79h1M46,79h1M50,79h1M51,79h1M52,79h1M53,79h1M54,79h1M56,79h1M59,79h1M60,79h1M64,79h1M65,79h1M66,79h1M67,79h1M69,79h1M70,79h1M72,79h1M75,79h1M80,79h1M0,80h1M1,80h1M2,80h1M3,80h1M4,80h1M5,80h1M6,80h1M9,80h1M10,80h1M11,80h1M14,80h1M18,80h1M21,80h1M22,80h1M26,80h1M30,80h1M37,80h1M38,80h1M40,80h1M41,80h1M43,80h1M44,80h1M45,80h1M46,80h1M47,80h1M50,80h1M51,80h1M54,80h1M55,80h1M61,80h1M62,80h1M65,80h1M67,80h1M69,80h1M71,80h1M72,80h1M73,80h1M78,80h1"/>
	</g>
</svg>
